<?xml version="1.0" encoding="utf-8"?>
<!-- Generator: Adobe Illustrator 23.0.1, SVG Export Plug-In . SVG Version: 6.00 Build 0)  -->
<svg version="1.1" xmlns="http://www.w3.org/2000/svg" xmlns:xlink="http://www.w3.org/1999/xlink">
<style type="text/css">
	.st0{fill:#1D1F25;}
	.st1{fill:#E0ECDE;}
	.st2{opacity:0;fill:#FFFFFF;}
	.st3{fill:none;stroke:#000000;stroke-width:1.3626;stroke-linecap:round;stroke-linejoin:round;stroke-miterlimit:10;}
	.st4{fill:#231F20;}
	.st5{fill:none;stroke:#231F20;stroke-width:1.7514;stroke-linecap:round;stroke-linejoin:round;stroke-miterlimit:10;}
	.st6{fill:#231F20;stroke:#231F20;stroke-width:1.7514;stroke-linecap:round;stroke-linejoin:round;stroke-miterlimit:10;}
	.st7{fill:none;stroke:#231F20;stroke-width:1.3085;stroke-miterlimit:10;}
	.st8{fill:none;stroke:#231F20;stroke-width:1.4309;stroke-miterlimit:10;}
	.st9{fill:none;stroke:#231F20;stroke-width:2.0271;stroke-miterlimit:10;}
	.st10{fill:none;stroke:#231F20;stroke-width:1.2881;stroke-miterlimit:10;}
	.st11{fill:none;stroke:#231F20;stroke-width:1.3044;stroke-miterlimit:10;}

	.right{fill:#f99716;stroke:#231F20;stroke-width:1.2881;stroke-miterlimit:10;}
	.left{fill:#a457bf;stroke:#231F20;stroke-width:1.2881;stroke-miterlimit:10;}
	.front{fill:#1724ea;stroke:#231F20;stroke-width:1.2881;stroke-miterlimit:10;}
	.back{fill:#e63af5;stroke:#231F20;stroke-width:1.2881;stroke-miterlimit:10;}
	.top{fill:#A178FD;stroke:#231F20;stroke-width:1.2881;stroke-miterlimit:10;}
	.left_back{fill:#eff53a;stroke:#231F20;stroke-width:1.2881;stroke-miterlimit:10;}
	.right_back{fill:#f5433a;stroke:#231F20;stroke-width:1.2881;stroke-miterlimit:10;}
	.front_right{fill:#98f53a;stroke:#231F20;stroke-width:1.2881;stroke-miterlimit:10;}
	.front_left{fill:#0fdfa5;stroke:#231F20;stroke-width:1.2881;stroke-miterlimit:10;}
</style>
<g id="Layer_2">
	<g>
		<g>
			<path class="right" d="M854.83,116.05c-57.54-3.56-204.61,0.24-257.86,0.24c-39.91,0-135.72,0.21-198.37,0.36
				c-0.44,1.09-0.89,2.16-1.32,3.18l375.16-2.36c11.77,2.56,16.32,7.8,17.74,13.14c0.24,0.9,0.39,1.81,0.48,2.71
				c19.8,0.95,58.3,4.62,58.3,4.62s8.11-4.9,27.06-2.03C867.49,127.95,854.86,116.08,854.83,116.05z"/>
			<path class="right" d="M370.64,116.73c-18.69,0.05-30.49,0.08-30.49,0.08s-0.62-0.04-1.81-0.1l1.18,3.24
				c1.03,0.16,2.08,0.25,3.13,0.24l26.97-0.17C369.92,118.89,370.26,117.79,370.64,116.73z"/>
		</g>
		<path class="right_back" d="M881.58,136.93c1.26,0.27,2.47,0.59,3.65,0.95c-1.25-2.25-2.72-5.63-0.34-5.63c2.8,0,19.04,6.87,33.22,18.94
			v0c-4.53-4.11-17.25-23.11-17.25-23.11v0c-9.02-4.9-18.02-7.72-26.16-9.76c-3.9-0.97-10.77-1.72-19.87-2.28
			c0.03,0.03,12.65,11.89,21.19,19.87C877.79,136.19,879.63,136.52,881.58,136.93z"/>
		<path class="right" d="M339.51,119.94l-1.18-3.24c-2.08-0.11-5.91-0.32-11.13-0.56l9.34,3.08
			C337.51,119.54,338.51,119.78,339.51,119.94z"/>
		<path class="right_back" d="M918.12,151.2L918.12,151.2c3.91,3.33,7.67,7.05,10.94,11.13c7.45,9.29,15.27,24.81,21.29,38.18
			c-10.92-42-30.22-61.95-49.48-72.42v0C900.86,128.09,913.59,147.08,918.12,151.2z"/>
		<path class="front_right" d="M214.9,144.9c-4.99,7.94-22.65,17.64-35.27,23.63c-14.4,6.83-54.66,24.78-75.15,32.88
			c-3.44,6.37-7.37,15.2-9.95,25.82c18.36-10.85,84.38-46.72,189.57-69.54c0,0-0.62-8.5-6.59-14.69L214.9,144.9z"/>
		<polygon class="right_back" points="874.72,201.01 874.72,201.01 874.72,201.02 		"/>
		<path class="right" d="M691.25,124.96c28.88,1.02,98.94,5.67,98.94,5.67c-1.43-5.34-5.98-10.59-17.74-13.14l-341.29,2.14
			l-0.01,0.01C442.51,119.85,663.12,123.97,691.25,124.96z"/>
		<g>
			<path class="right" d="M790.66,133.34c-0.08-0.9-0.23-1.8-0.48-2.71c0,0-70.06-4.65-98.94-5.67
				c-28.13-0.99-248.74-5.11-260.1-5.32l0.01-0.01l-33.87,0.21c-1.83,4.33-3.47,7.92-4.26,9.61c-0.3,0.64-0.94,1.05-1.64,1.05h-1.12
				h-2.37c-0.16,0.93-0.35,1.66-0.55,2.23c-0.39,1.11-1.4,1.87-2.58,1.94c-1.1,0.06-2.74,0.15-4.64,0.23l3.41,5.31
				c9.03-0.14,18.17-0.24,27.09-0.29c33.55-0.18,99.49,0.23,162.15,1.32c0.06,0,0.11,0,0.17,0c3.34,0.06,6.68,0.12,10,0.18
				c0.04,0,0.09,0,0.13,0c3.31,0.06,6.6,0.13,9.88,0.19c0.07,0,0.13,0,0.2,0c3.29,0.07,6.55,0.13,9.79,0.21c0.02,0,0.04,0,0.07,0
				c30.19,0.66,58.12,1.49,79.4,2.51c45.22,2.16,75.54,7.08,96.79,12.21c5.55-6.72,10.3-13.12,10.9-15.95
				C790.56,138.46,790.9,135.94,790.66,133.34z"/>
			<path class="right" d="M363.76,134.9c0.04,0,0.09,0.01,0.14,0.01c-0.78-0.08-1.42-0.19-1.84-0.33c-3.82-1.27,0-8.15,2.29-9.68
				c0.88-0.59,2.88-2.22,5.02-4.02c0.07-0.3,0.17-0.57,0.25-0.87l-26.97,0.17c-1.05,0.01-2.1-0.07-3.13-0.24l7.66,20.99
				c5.44-0.13,11.17-0.26,17.07-0.39C365.32,139.28,364.58,136.77,363.76,134.9z"/>
		</g>
		<path class="right_back" d="M873.68,199.02c-6.19-11.24-21.67-19.68-31.08-23.98c-25.29,5.1-30.07,23.64-30.07,23.64l27.14,1.02
			l35.05,1.32C874.38,200.33,874.03,199.66,873.68,199.02z"/>
		<path class="right" d="M867.82,148.91c-11.72-3.31-18.85-10.96-18.85-10.96s-38.51-3.67-58.3-4.62c0.24,2.6-0.1,5.12-0.55,7.25
			c-0.6,2.83-5.35,9.23-10.9,15.95c12.11,2.93,21.29,5.92,28.57,8.51c20.04,7.13,14.95,11.89,11.89,12.4
			c-1.33,0.22-26.89,0.44-59.41,0.54c-42.2,0.12-96.13,0.04-124.05-0.54c-11.08-0.23-24.34-0.59-38.42-1.02
			c-0.08,0-0.17-0.01-0.25-0.01c-2.32-0.07-4.65-0.15-7-0.22c-0.02,0-0.05,0-0.07,0c-47.1-1.53-100.44-3.87-111.22-5.37
			c-6.34-0.88-40.68-6.37-77.53-12.3c0,0-0.01,0-0.01,0c-48.1-7.74-100.48-16.23-100.48-16.23L277.5,143
			c5.98,6.19,6.59,14.69,6.59,14.69s22.93-3.69,40.77-2.16c17.84,1.53,143.45,21.31,145.49,22.5c2.04,1.2,4.08,5.27,4.08,5.27
			s97.11,8.6,130.18,11.44c33.91,2.91,207.93,3.93,207.93,3.93s4.79-18.54,30.07-23.64c1.66-0.34,3.41-0.61,5.26-0.82
			c17.42-1.98,28.03-2.98,35.47-1.94c5.68-2.49,18.95-1.59,25.82-0.91C900.51,162.73,878.58,151.95,867.82,148.91z"/>
		<path class="front_right" d="M206.12,133.62c0,0-20.38-4.59-38.73,0c-18.35,4.59-48.28,28.05-63.83,45.1
			c-10.69,11.72-16.18,26.75-11.08,26.75c1.2,0,5.65-1.56,11.99-4.07c20.49-8.1,60.75-26.05,75.15-32.88
			c12.63-5.99,30.28-15.69,35.27-23.63C217.92,140.09,216.31,135.93,206.12,133.62z"/>
		<path class="right" d="M597.55,176.42c-2.31-0.07-4.65-0.15-7-0.22C592.9,176.27,595.23,176.34,597.55,176.42z"/>
		<path class="right" d="M394.24,145.43c5.51-0.07,11.01-0.12,16.42-0.15c5.06-0.03,10.84-0.04,17.25-0.04
			c34.59,0,86.35,0.4,136.8,1.23l-2.04-5.41c3.38,0.05,6.75,0.11,10.12,0.17c-62.66-1.09-128.6-1.5-162.15-1.32
			c-9.9,0.05-20.08,0.18-30.06,0.34c3.52-0.06,7.06-0.11,10.61-0.16L394.24,145.43z"/>
		<path class="st10" d="M593.16,141.61c3.29,0.07,6.55,0.13,9.79,0.21C599.71,141.75,596.44,141.68,593.16,141.61z"/>
		<path class="st10" d="M572.95,141.23c3.34,0.06,6.68,0.12,10,0.18C579.63,141.35,576.3,141.29,572.95,141.23z"/>
		<path class="st10" d="M583.08,141.41c3.31,0.06,6.6,0.13,9.88,0.19C589.69,141.54,586.39,141.48,583.08,141.41z"/>
		<path class="st10" d="M380.49,140.25c0.03,0,0.06,0,0.08,0C380.55,140.25,380.52,140.25,380.49,140.25z"/>
		<path class="st10" d="M401.73,158.52L401.73,158.52c0,0-0.01,0-0.01,0C401.73,158.52,401.73,158.52,401.73,158.52z"/>
		<path class="right" d="M391.18,140.09c-3.55,0.05-7.09,0.1-10.61,0.16c-0.03,0-0.06,0-0.08,0c-3.52,0.06-7.01,0.12-10.45,0.19
			l3.21,5.32c6.9-0.13,13.95-0.24,20.99-0.32L391.18,140.09z"/>
		<path class="st10" d="M597.8,176.42c-0.08,0-0.17-0.01-0.25-0.01C597.63,176.42,597.72,176.42,597.8,176.42z"/>
		<path class="st10" d="M590.55,176.19c-0.02,0-0.05,0-0.07,0C590.5,176.19,590.52,176.19,590.55,176.19z"/>
		<path class="st10" d="M603.02,141.82c-0.02,0-0.04,0-0.07,0C602.97,141.82,602.99,141.82,603.02,141.82L603.02,141.82z"/>
		<path class="st10" d="M582.95,141.41c0.04,0,0.09,0,0.13,0C583.04,141.41,582.99,141.41,582.95,141.41z"/>
		<path class="st10" d="M592.96,141.61c0.07,0,0.13,0,0.2,0C593.09,141.61,593.03,141.61,592.96,141.61z"/>
		<path class="st10" d="M572.79,141.23c0.06,0,0.11,0,0.17,0C572.9,141.23,572.84,141.23,572.79,141.23z"/>
		<path class="right" d="M564.71,146.47c13.41,0.22,26.73,0.47,39.6,0.76c-0.52-2.15-0.97-4.01-1.3-5.41c-0.02,0-0.04,0-0.07,0
			c-3.24-0.07-6.51-0.14-9.79-0.21c-0.06,0-0.13,0-0.2,0c-3.28-0.07-6.57-0.13-9.88-0.19c-0.04,0-0.09,0-0.13,0
			c-3.32-0.06-6.65-0.12-10-0.18c-0.06,0-0.11,0-0.17,0c-3.37-0.06-6.74-0.12-10.12-0.17L564.71,146.47z"/>
		<g>
			<path class="st4" d="M370.04,140.43L370.04,140.43c0.14,0,0.27,0,0.41-0.01C370.31,140.43,370.17,140.43,370.04,140.43z"/>
			<path class="st4" d="M370.45,140.42c3.31-0.06,6.66-0.12,10.04-0.18C377.11,140.3,373.76,140.36,370.45,140.42z"/>
			<path class="right" d="M807.77,165.05c-7.28-2.59-16.45-5.58-28.57-8.51c-21.25-5.13-51.57-10.05-96.79-12.21
				c-21.28-1.02-49.21-1.85-79.4-2.51c0.33,1.4,0.78,3.26,1.3,5.41c29.77,0.65,57.18,1.47,77.93,2.47
				c34.68,1.66,60.51,4.91,80.43,8.73c0.05,0.01,0.1,0.02,0.15,0.03c1.22,0.23,2.42,0.47,3.59,0.71c0.08,0.02,0.17,0.03,0.25,0.05
				c1.14,0.23,2.25,0.46,3.35,0.7c0.11,0.02,0.22,0.05,0.32,0.07c1.06,0.23,2.1,0.46,3.13,0.69c0.14,0.03,0.27,0.06,0.4,0.09
				c0.5,0.11,1.01,0.23,1.5,0.34c0.48,0.11,0.95,0.23,1.43,0.34c0.15,0.03,0.29,0.07,0.44,0.1c0.94,0.22,1.86,0.45,2.76,0.67
				c0.16,0.04,0.31,0.08,0.47,0.12c0.88,0.22,1.75,0.44,2.6,0.66c0.17,0.04,0.34,0.09,0.51,0.13c0.83,0.22,1.64,0.43,2.44,0.65
				c0.18,0.05,0.37,0.1,0.55,0.15c0.78,0.21,1.55,0.43,2.3,0.64c0.18,0.05,0.37,0.1,0.55,0.15c0.74,0.21,1.46,0.42,2.18,0.63
				c0.19,0.06,0.39,0.11,0.58,0.17c0.7,0.21,1.38,0.41,2.05,0.62c0.19,0.06,0.39,0.12,0.58,0.18c0.65,0.2,1.29,0.4,1.93,0.6
				c0.21,0.06,0.42,0.13,0.62,0.19c0.61,0.19,1.2,0.39,1.79,0.58c0.21,0.07,0.43,0.14,0.65,0.21c0.58,0.19,1.15,0.38,1.71,0.57
				c0.21,0.07,0.42,0.14,0.63,0.21c0.58,0.2,1.15,0.39,1.71,0.59c0.18,0.06,0.36,0.12,0.53,0.18c0.73,0.25,1.45,0.51,2.16,0.76
				c6.68,2.37,9.81,4.26,11.26,5.4c-0.23,0.01-0.49,0.01-0.76,0.02c-0.06,0-0.12,0-0.19,0c-0.27,0.01-0.55,0.01-0.87,0.02
				c-0.03,0-0.07,0-0.1,0c-0.31,0.01-0.66,0.01-1.01,0.02c-0.1,0-0.2,0-0.31,0.01c-0.31,0.01-0.63,0.01-0.97,0.02
				c-0.16,0-0.32,0-0.48,0.01c-0.32,0-0.65,0.01-0.99,0.01c-0.19,0-0.39,0.01-0.59,0.01c-0.28,0-0.57,0.01-0.87,0.01
				c-0.33,0-0.68,0.01-1.03,0.01c-0.3,0-0.6,0.01-0.92,0.01c-0.3,0-0.6,0.01-0.9,0.01c-0.14,0-0.29,0-0.43,0
				c-1.21,0.01-2.49,0.03-3.86,0.04c-0.11,0-0.22,0-0.33,0c-10.2,0.1-24.56,0.18-41.15,0.23c-10.98,0.03-22.93,0.05-35.3,0.05
				c-0.01,0-0.01,0-0.02,0c-23.14,0-65.67-0.08-90.45-0.59c-7.46-0.15-16-0.37-25.17-0.63c-8.86-0.25-18.29-0.55-27.9-0.87
				c-44.81-1.51-93.3-3.67-103.45-5.09c-6.38-0.89-41.74-6.54-79.28-12.58c-7.68-1.24-15.45-2.49-23.08-3.72
				c-13.48-2.18-26.54-4.28-37.9-6.12c3.08-0.08,6.3-0.16,9.6-0.24c7.62-0.18,15.76-0.36,24.14-0.52l-3.21-5.32
				c-7.95,0.15-15.67,0.32-22.87,0.5c-26.36,0.65-45.92,1.35-45.92,1.35s52.38,8.49,100.48,16.23c0,0,0.01,0,0.01,0
				c36.85,5.93,71.19,11.42,77.53,12.3c10.22,1.43,58.78,3.6,103.96,5.13v0c2.43,0.08,4.85,0.16,7.26,0.24c0.02,0,0.05,0,0.07,0
				c2.35,0.08,4.69,0.15,7,0.22c0.08,0,0.17,0.01,0.25,0.01c2.11,0.07,4.19,0.13,6.26,0.19c0.63,0.02,1.25,0.04,1.87,0.06
				c1.54,0.05,3.06,0.09,4.58,0.13c0.36,0.01,0.74,0.02,1.1,0.03c0,0,0,0,0,0c8.9,0.25,17.24,0.46,24.61,0.61
				c27.92,0.58,81.84,0.66,124.05,0.54c32.52-0.1,58.07-0.32,59.41-0.54C822.72,176.94,827.82,172.18,807.77,165.05z"/>
		</g>
		<path class="st10" d="M799.8,167.9c0.58,0.19,1.15,0.38,1.71,0.57C800.95,168.28,800.38,168.09,799.8,167.9z"/>
		<path class="st10" d="M802.14,168.68c0.58,0.2,1.15,0.39,1.71,0.59C803.29,169.07,802.72,168.87,802.14,168.68z"/>
		<path class="st10" d="M797.36,167.11c0.61,0.19,1.2,0.39,1.79,0.58C798.56,167.5,797.97,167.3,797.36,167.11z"/>
		<path class="st10" d="M780.48,162.33c0.88,0.22,1.75,0.44,2.6,0.66C782.23,162.77,781.36,162.55,780.48,162.33z"/>
		<path class="st10" d="M783.59,163.12c0.83,0.22,1.64,0.43,2.44,0.65C785.22,163.56,784.41,163.34,783.59,163.12z"/>
		<path class="st10" d="M777.24,161.54c0.94,0.22,1.86,0.45,2.76,0.67C779.1,161.99,778.18,161.76,777.24,161.54z"/>
		<path class="st10" d="M770.34,159.98c1.06,0.23,2.1,0.46,3.13,0.69C772.45,160.43,771.4,160.21,770.34,159.98z"/>
		<path class="st10" d="M766.67,159.21c1.14,0.23,2.25,0.46,3.35,0.7C768.92,159.67,767.81,159.44,766.67,159.21z"/>
		<path class="st10" d="M794.82,166.31c0.65,0.2,1.29,0.4,1.93,0.6C796.11,166.71,795.47,166.51,794.82,166.31z"/>
		<path class="st10" d="M792.18,165.52c0.7,0.21,1.38,0.41,2.05,0.62C793.56,165.93,792.88,165.72,792.18,165.52z"/>
		<path class="st10" d="M786.57,163.92c0.78,0.21,1.55,0.43,2.3,0.64C788.12,164.35,787.35,164.14,786.57,163.92z"/>
		<path class="st10" d="M762.82,158.45c1.22,0.23,2.42,0.47,3.59,0.71C765.24,158.92,764.04,158.68,762.82,158.45z"/>
		<path class="st10" d="M789.43,164.72c0.74,0.21,1.46,0.42,2.18,0.63C790.89,165.14,790.16,164.93,789.43,164.72z"/>
		<path class="right" d="M564.71,146.47c-50.44-0.83-102.21-1.23-136.8-1.23c-6.41,0-12.2,0.01-17.25,0.04
			c-5.41,0.03-10.91,0.08-16.42,0.15l6.25,10.92c37.54,6.04,72.89,11.69,79.28,12.58c10.16,1.42,58.65,3.57,103.45,5.09
			L564.71,146.47L564.71,146.47z"/>
		<path class="st10" d="M807.4,175.78c-1.21,0.01-2.49,0.03-3.86,0.04C804.9,175.8,806.19,175.79,807.4,175.78z"/>
		<path class="st10" d="M804.39,169.45c0.73,0.25,1.45,0.51,2.16,0.76C805.84,169.96,805.12,169.7,804.39,169.45z"/>
		<path class="st10" d="M810.67,175.74c-0.33,0-0.68,0.01-1.03,0.01C810,175.75,810.34,175.74,810.67,175.74z"/>
		<path class="st10" d="M808.73,175.76c-0.3,0-0.6,0.01-0.9,0.01C808.13,175.77,808.43,175.76,808.73,175.76z"/>
		<path class="st10" d="M775.37,161.1c-0.49-0.11-1-0.23-1.5-0.34C774.38,160.87,774.87,160.99,775.37,161.1
			C775.37,161.1,775.37,161.1,775.37,161.1z"/>
		<path class="right" d="M784.5,167.59c-6.64-0.83-9.22,5.89-9.95,8.41c-3.99,0.02-8.17,0.03-12.49,0.05c0,0,0,0,0,0
			c16.6-0.05,30.95-0.14,41.15-0.23c-0.92,0.01-1.87,0.02-2.86,0.03C798.89,174.54,791.77,168.5,784.5,167.59z"/>
		<path class="right" d="M636.29,175.52c24.79,0.51,67.31,0.59,90.45,0.59c0.01,0,0.01,0,0.02,0c12.36,0,24.31-0.02,35.3-0.05
			c0,0,0,0,0,0c-4.32,0.01-8.79,0.02-13.37,0.03c3-2.95,12.8-12.66,13.23-14.09c0.25-0.84-1.39-2.66-3.12-4.29
			c1.32,0.24,2.62,0.48,3.89,0.72c-19.92-3.82-45.75-7.07-80.43-8.73c-20.75-0.99-48.16-1.81-77.93-2.47
			c2.02,8.33,5.14,20.94,6.81,27.66C620.29,175.15,628.83,175.36,636.29,175.52z"/>
		<path class="st10" d="M776.8,161.44c-0.48-0.11-0.95-0.23-1.43-0.34c0,0,0,0-0.01,0.01C775.85,161.21,776.33,161.32,776.8,161.44z
			"/>
		<path class="st10" d="M814.88,175.67c-0.1,0-0.2,0-0.31,0.01C814.68,175.68,814.78,175.68,814.88,175.67z"/>
		<path class="st10" d="M812.13,175.72c-0.19,0-0.39,0.01-0.59,0.01C811.74,175.72,811.94,175.72,812.13,175.72z"/>
		<path class="st10" d="M815.99,175.65c-0.03,0-0.07,0-0.1,0C815.93,175.65,815.96,175.65,815.99,175.65z"/>
		<path class="right" d="M373.25,145.75c-8.37,0.15-16.51,0.33-24.14,0.52c-3.3,0.08-6.52,0.16-9.6,0.24
			c11.36,1.84,24.41,3.95,37.9,6.12L373.25,145.75z"/>
		<path class="st10" d="M813.61,175.7c-0.16,0-0.32,0-0.48,0.01C813.29,175.7,813.45,175.7,813.61,175.7z"/>
		<path class="st10" d="M817.05,175.63c-0.06,0-0.12,0-0.19,0C816.92,175.63,816.99,175.63,817.05,175.63z"/>
		<path class="st4" d="M394.24,145.43c-7.04,0.08-14.09,0.19-20.99,0.32l4.16,6.88c7.63,1.23,15.4,2.48,23.08,3.72L394.24,145.43z"
			/>
		<path class="st4" d="M564.71,146.47l18.51,27.54c9.61,0.32,19.05,0.62,27.9,0.87c-1.67-6.72-4.79-19.33-6.81-27.66
			C591.44,146.94,578.12,146.69,564.71,146.47L564.71,146.47z"/>
		<path class="st10" d="M762.68,158.42c0.05,0.01,0.1,0.02,0.15,0.03C762.77,158.44,762.73,158.43,762.68,158.42z"/>
		<path class="st10" d="M770.02,159.91c0.11,0.02,0.22,0.05,0.32,0.07C770.24,159.95,770.13,159.93,770.02,159.91z"/>
		<path class="st10" d="M773.47,160.67c0.14,0.03,0.27,0.06,0.4,0.09C773.74,160.73,773.61,160.7,773.47,160.67z"/>
		<path class="st10" d="M766.42,159.16c0.08,0.02,0.17,0.03,0.25,0.05C766.59,159.19,766.5,159.17,766.42,159.16z"/>
		<path class="st10" d="M813.13,175.7c-0.32,0-0.65,0.01-0.99,0.01C812.48,175.71,812.81,175.71,813.13,175.7z"/>
		<path class="st10" d="M814.57,175.68c-0.31,0.01-0.63,0.01-0.97,0.02C813.94,175.69,814.27,175.69,814.57,175.68z"/>
		<path class="st10" d="M815.89,175.66c-0.31,0.01-0.65,0.01-1.01,0.02C815.24,175.67,815.58,175.66,815.89,175.66z"/>
		<path class="st10" d="M817.81,175.61c-0.23,0.01-0.49,0.01-0.76,0.02C817.32,175.62,817.58,175.62,817.81,175.61z"/>
		<path class="st10" d="M803.86,169.27c0.18,0.06,0.36,0.12,0.53,0.18C804.21,169.39,804.03,169.33,803.86,169.27z"/>
		<path class="st10" d="M816.86,175.63c-0.27,0.01-0.56,0.01-0.87,0.02C816.31,175.65,816.59,175.64,816.86,175.63z"/>
		<path class="st10" d="M803.54,175.82c-0.11,0-0.22,0-0.33,0C803.32,175.82,803.43,175.82,803.54,175.82z"/>
		<path class="st10" d="M807.82,175.77c-0.14,0-0.29,0-0.43,0C807.54,175.77,807.68,175.77,807.82,175.77z"/>
		<path class="st10" d="M809.65,175.75c-0.3,0-0.6,0.01-0.92,0.01C809.04,175.76,809.35,175.75,809.65,175.75z"/>
		<path class="st10" d="M811.54,175.73c-0.28,0-0.57,0.01-0.87,0.01C810.97,175.73,811.26,175.73,811.54,175.73z"/>
		<path class="st10" d="M794.23,166.14c0.19,0.06,0.39,0.12,0.58,0.18C794.62,166.25,794.43,166.2,794.23,166.14z"/>
		<path class="st10" d="M786.02,163.77c0.18,0.05,0.37,0.1,0.55,0.15C786.39,163.87,786.21,163.82,786.02,163.77z"/>
		<path class="st10" d="M783.08,162.99c0.17,0.04,0.34,0.09,0.51,0.13C783.42,163.08,783.25,163.04,783.08,162.99z"/>
		<path class="st10" d="M780.01,162.21c0.16,0.04,0.31,0.08,0.47,0.12C780.32,162.29,780.16,162.25,780.01,162.21z"/>
		<path class="st10" d="M788.88,164.56c0.18,0.05,0.37,0.1,0.55,0.15C789.24,164.67,789.06,164.61,788.88,164.56z"/>
		<path class="st10" d="M796.74,166.91c0.21,0.06,0.42,0.13,0.62,0.19C797.16,167.04,796.95,166.98,796.74,166.91z"/>
		<path class="st10" d="M791.6,165.35c0.19,0.06,0.39,0.11,0.58,0.17C791.99,165.46,791.79,165.4,791.6,165.35z"/>
		<path class="st10" d="M799.15,167.69c0.21,0.07,0.43,0.14,0.65,0.21C799.59,167.83,799.37,167.76,799.15,167.69z"/>
		<path class="st10" d="M801.51,168.47c0.21,0.07,0.42,0.14,0.63,0.21C801.93,168.61,801.72,168.54,801.51,168.47z"/>
		<path class="st10" d="M776.8,161.44c0.15,0.03,0.29,0.07,0.44,0.1C777.1,161.5,776.95,161.47,776.8,161.44z"/>
		<path class="st4" d="M761.91,161.99c-0.43,1.44-10.22,11.14-13.23,14.09c4.59-0.01,9.05-0.02,13.37-0.03
			c2.71-2.94,8.02-8.77,13.31-14.95c-0.5-0.12-0.99-0.23-1.49-0.35c-0.13-0.03-0.27-0.06-0.4-0.09c-1.02-0.23-2.07-0.46-3.13-0.69
			c-0.11-0.02-0.22-0.05-0.32-0.07c-1.1-0.23-2.21-0.47-3.35-0.7c-0.08-0.02-0.17-0.03-0.25-0.05c-1.18-0.24-2.37-0.47-3.59-0.71
			c-0.05-0.01-0.1-0.02-0.15-0.03c-1.27-0.24-2.57-0.49-3.89-0.72C760.52,159.33,762.16,161.15,761.91,161.99z"/>
		<path class="st4" d="M762.06,176.05c4.33-0.01,8.5-0.03,12.49-0.05c0.73-2.52,3.31-9.24,9.95-8.41
			c7.27,0.91,14.38,6.95,15.85,8.25c0.99-0.01,1.94-0.02,2.86-0.03c0.11,0,0.22,0,0.33,0c1.37-0.01,2.65-0.03,3.86-0.04
			c0.14,0,0.29,0,0.43,0c0.31,0,0.61-0.01,0.9-0.01c0.31,0,0.62-0.01,0.92-0.01c0.35,0,0.69-0.01,1.03-0.01
			c0.29,0,0.59-0.01,0.87-0.01c0.2,0,0.4-0.01,0.59-0.01c0.34,0,0.67-0.01,0.99-0.01c0.16,0,0.32,0,0.48-0.01
			c0.34-0.01,0.66-0.01,0.97-0.02c0.1,0,0.21,0,0.31-0.01c0.35-0.01,0.69-0.01,1.01-0.02c0.03,0,0.07,0,0.1,0
			c0.31-0.01,0.6-0.01,0.87-0.02c0.06,0,0.13,0,0.19,0c0.28-0.01,0.54-0.01,0.76-0.02c-1.45-1.14-4.58-3.03-11.26-5.4
			c-0.71-0.25-1.43-0.51-2.16-0.76c-0.17-0.06-0.36-0.12-0.53-0.18c-0.57-0.2-1.13-0.39-1.71-0.59c-0.21-0.07-0.42-0.14-0.63-0.21
			c-0.56-0.19-1.13-0.38-1.71-0.57c-0.21-0.07-0.43-0.14-0.65-0.21c-0.59-0.19-1.18-0.39-1.79-0.58c-0.2-0.06-0.41-0.13-0.62-0.19
			c-0.63-0.2-1.27-0.4-1.93-0.6c-0.19-0.06-0.39-0.12-0.58-0.18c-0.68-0.21-1.36-0.41-2.05-0.62c-0.19-0.06-0.39-0.11-0.58-0.17
			c-0.72-0.21-1.44-0.42-2.18-0.63c-0.18-0.05-0.37-0.1-0.55-0.15c-0.76-0.21-1.52-0.43-2.3-0.64c-0.18-0.05-0.37-0.1-0.55-0.15
			c-0.8-0.22-1.61-0.43-2.44-0.65c-0.17-0.04-0.34-0.09-0.51-0.13c-0.85-0.22-1.72-0.44-2.6-0.66c-0.16-0.04-0.31-0.08-0.47-0.12
			c-0.91-0.22-1.83-0.45-2.76-0.67c-0.15-0.03-0.29-0.07-0.44-0.1c-0.47-0.11-0.96-0.22-1.44-0.33
			C770.08,167.28,764.77,173.11,762.06,176.05z"/>
		<g>
			<path class="right_back" d="M864.78,137.6c3.38,0,7.04,0.29,10.87,0.88c1.83,0.28,3.59,0.6,5.41,0.98c1.1,0.23,2.22,0.52,3.43,0.9
				c17.75,5.46,27.3,22.48,31.88,30.66c0.44,0.79,0.85,1.51,1.21,2.14c1.93,3.33,5.79,11.9,9.19,20.38c1.46,3.64,2.6,6.68,3.48,9.19
				c-1.94-3.5-4.04-7.5-5.84-10.93c-4.04-7.71-8.22-15.69-11.2-19.7c-0.59-0.8-1.32-1.63-2.23-2.54
				c-9.32-9.32-31.72-20.09-42.45-23.12c-6.58-1.86-11.66-5.21-14.65-7.57C856.25,138.23,859.85,137.6,864.78,137.6 M864.78,135.02
				c-10.96,0-15.81,2.93-15.81,2.93s7.13,7.64,18.85,10.96c10.76,3.04,32.69,13.82,41.33,22.46c0.77,0.77,1.44,1.52,1.98,2.25
				c6.62,8.92,19.83,39,23.8,40.14h0c0.06,0.02,0.12,0.03,0.18,0.03c1.85,0-1.68-10.52-5.96-21.22c-3.43-8.57-7.34-17.25-9.35-20.71
				c-4.34-7.48-14.14-27.69-34.57-33.97c-1.18-0.36-2.4-0.69-3.65-0.95c-1.95-0.41-3.79-0.74-5.55-1.01
				C871.73,135.28,867.99,135.02,864.78,135.02L864.78,135.02z"/>
		</g>
		<g>
			<path class="left" d="M369.63,492.73l-26.98-0.17c-1.05-0.01-2.1,0.07-3.13,0.24l-1.18,3.24c1.19-0.07,1.81-0.1,1.81-0.1
				s11.81,0.03,30.51,0.08C370.28,494.95,369.93,493.86,369.63,492.73z"/>
			<path class="left" d="M848.97,474.79c0,0-38.51,3.67-58.3,4.62c-0.08,0.9-0.23,1.8-0.48,2.71c-1.43,5.34-5.98,10.59-17.74,13.14
				l-375.14-2.35c0.13,0.32,0.27,0.63,0.4,0.95c0.3,0.72,0.61,1.48,0.91,2.23c62.65,0.15,158.45,0.36,198.36,0.36
				c53.24,0,200.32,3.8,257.86,0.24c0.03-0.03,12.65-11.89,21.19-19.87C857.08,479.69,848.97,474.79,848.97,474.79z"/>
		</g>
		<path class="left_back" d="M881.58,475.81c1.26-0.27,2.47-0.59,3.65-0.95c-1.25,2.25-2.72,5.63-0.34,5.63c2.8,0,19.04-6.87,33.22-18.94
			v0c-4.53,4.11-17.25,23.11-17.25,23.11v0c-9.02,4.9-18.02,7.72-26.16,9.76c-3.9,0.97-10.77,1.72-19.87,2.28
			c0.03-0.03,12.65-11.89,21.19-19.87C877.79,476.55,879.63,476.22,881.58,475.81z"/>
		<path class="left" d="M339.51,492.8l-1.18,3.24c-2.08,0.11-5.91,0.32-11.13,0.56l9.34-3.08
			C337.51,493.2,338.51,492.96,339.51,492.8z"/>
		<path class="left_back" d="M918.12,461.55L918.12,461.55c3.91-3.33,7.67-7.05,10.94-11.13c7.45-9.29,15.27-24.81,21.29-38.18
			c-10.92,42-30.22,61.95-49.48,72.42v0C900.86,484.65,913.59,465.66,918.12,461.55z"/>
		<path class="front" d="M277.5,469.74l-62.6-1.9c3.02,4.81,1.41,8.97-8.78,11.28c0,0-20.38,4.59-38.73,0
			c-18.35-4.59-48.28-28.05-63.83-45.1c-10.69-11.72-16.18-26.75-11.08-26.75c1.2,0,5.65,1.56,11.99,4.07
			c-3.44-6.37-7.37-15.2-9.95-25.82c-1.02-4.2-1.83-8.68-2.31-13.4c-1.88-18.45-2.56-46.67-2.8-65.74
			c0.25-19.06,0.93-47.29,2.8-65.74c0.48-4.72,1.29-9.2,2.31-13.4c2.58-10.63,6.51-19.45,9.95-25.82
			c-6.34,2.5-10.78,4.07-11.99,4.07c-5.1,0,0.39-15.03,11.08-26.75c15.55-17.05,45.48-40.51,63.83-45.1c18.35-4.59,38.73,0,38.73,0
			c10.19,2.31,11.8,6.47,8.78,11.28l62.6-1.9l23.75-0.72c0,0,19.56-0.71,45.92-1.35l-7.66-20.99c-1.01-0.16-2-0.4-2.97-0.72
			l-9.34-3.08c-18.85-0.87-55.99-2.24-96.11-1.89c-57.58,0.51-95.27,13.76-131.21,50.45c-30.44,31.08-35.83,77.89-36.76,141.67
			c0.93,63.77,6.32,110.58,36.76,141.67c35.94,36.69,73.63,49.94,131.21,50.45c40.12,0.36,77.26-1.02,96.11-1.89l9.34-3.08
			c0.97-0.32,1.97-0.56,2.97-0.72l7.66-20.99c-26.36-0.65-45.92-1.35-45.92-1.35L277.5,469.74z"/>
		<path class="front_left" d="M214.9,467.84c-4.99-7.94-22.65-17.64-35.27-23.63c-14.4-6.83-54.66-24.78-75.15-32.88
			c-3.44-6.37-7.37-15.2-9.95-25.82c18.36,10.85,84.38,46.72,189.57,69.54c0,0-0.62,8.5-6.59,14.69L214.9,467.84z"/>
		<path class="front" d="M251.11,306.37c0.38-16.71,1.17-36.54,2.7-57.34c3.44-57.48,30.28-91.33,30.28-91.33
			c-105.19,22.81-171.21,58.69-189.57,69.54c-1.02,4.2-1.83,8.68-2.31,13.4c-1.88,18.45-2.56,46.67-2.8,65.74
			c0.25,19.06,0.93,47.29,2.8,65.74c0.48,4.72,1.29,9.2,2.31,13.4c18.36,10.85,84.38,46.72,189.57,69.54
			c0,0-26.84-33.85-30.28-91.33C252.28,342.92,251.49,323.08,251.11,306.37z"/>
		<polygon class="left" points="874.72,411.73 874.72,411.73 874.72,411.73 		"/>
		<path class="left" d="M691.25,487.78c28.88-1.02,98.94-5.67,98.94-5.67c-1.43,5.34-5.98,10.59-17.74,13.14l-341.29-2.14
			l-0.01-0.01C442.51,492.89,663.12,488.78,691.25,487.78z"/>
		<g>
			<path class="left" d="M790.11,472.16c-0.6-2.83-5.36-9.23-10.9-15.95c-21.25,5.13-51.57,10.05-96.79,12.21
				c-21.28,1.02-49.21,1.85-79.4,2.51c-0.02,0-0.04,0-0.07,0c-3.24,0.07-6.51,0.14-9.79,0.21c-0.06,0-0.13,0-0.2,0
				c-3.28,0.07-6.57,0.13-9.88,0.19c-0.04,0-0.09,0-0.13,0c-3.32,0.06-6.65,0.12-10,0.18c-0.06,0-0.11,0-0.17,0
				c-62.66,1.09-128.6,1.5-162.15,1.32c-8.94-0.05-18.1-0.15-27.14-0.29l-3.37,5.25c1.9,0.08,3.54,0.17,4.64,0.23
				c1.17,0.06,2.19,0.83,2.58,1.94c0.2,0.56,0.39,1.3,0.55,2.23h-0.25c0,0,0,0,0,0h2.62h1.12c0.35,0,0.69,0.1,0.97,0.28
				c0.28,0.18,0.52,0.44,0.67,0.76c0.72,1.54,2.15,4.66,3.78,8.48c0.17,0.39,0.34,0.79,0.5,1.19l33.84,0.21l-0.01-0.01
				c11.37-0.21,231.97-4.33,260.1-5.32c28.88-1.02,98.94-5.67,98.94-5.67c0.24-0.9,0.39-1.81,0.48-2.71
				C790.9,476.81,790.56,474.29,790.11,472.16z"/>
			<path class="left" d="M369.37,491.8C369.37,491.8,369.37,491.8,369.37,491.8L369.37,491.8c-2.13-1.79-4.14-3.43-5.02-4.02
				c-2.29-1.53-6.12-8.41-2.29-9.68c0.42-0.14,1.06-0.25,1.84-0.33c-0.04,0-0.1,0.01-0.14,0.01c0.8-1.85,1.53-4.3,0.52-5.58
				c-5.92-0.12-11.66-0.25-17.11-0.39l-7.66,20.99c1.03-0.16,2.08-0.25,3.13-0.24l26.98,0.17
				C369.54,492.42,369.44,492.12,369.37,491.8z"/>
		</g>
		<path class="left_back" d="M873.68,413.72c-6.19,11.24-21.67,19.68-31.08,23.98c-25.29-5.1-30.07-23.64-30.07-23.64l27.14-1.02
			l35.05-1.32C874.38,412.42,874.03,413.09,873.68,413.72z"/>
		<path class="left" d="M867.82,463.83c-11.72,3.31-18.85,10.96-18.85,10.96s-38.51,3.67-58.3,4.62c0.24-2.6-0.1-5.12-0.55-7.25
			c-0.6-2.83-5.35-9.23-10.9-15.95c12.11-2.93,21.29-5.92,28.57-8.51c20.04-7.13,14.95-11.89,11.89-12.4
			c-1.33-0.22-26.89-0.44-59.41-0.54c-42.2-0.12-96.13-0.04-124.05,0.54c-11.08,0.23-24.34,0.59-38.42,1.02
			c-0.08,0-0.17,0.01-0.25,0.01c-2.32,0.07-4.65,0.15-7,0.22c-0.02,0-0.05,0-0.07,0c-47.1,1.53-100.44,3.87-111.22,5.37
			c-6.34,0.88-40.68,6.37-77.53,12.3c0,0-0.01,0-0.01,0c-48.1,7.74-100.48,16.23-100.48,16.23l-23.75-0.72
			c5.98-6.19,6.59-14.69,6.59-14.69s22.93,3.69,40.77,2.16c17.84-1.53,143.45-21.31,145.49-22.5c2.04-1.2,4.08-5.27,4.08-5.27
			s97.11-8.6,130.18-11.44c33.91-2.91,207.93-3.93,207.93-3.93s4.79,18.54,30.07,23.64c1.66,0.34,3.41,0.61,5.26,0.82
			c17.42,1.98,28.03,2.98,35.47,1.94c5.68,2.49,18.95,1.59,25.82,0.91C900.51,450.02,878.58,460.79,867.82,463.83z"/>
		<path class="back" d="M874.72,201.02C874.72,201.02,874.72,201.02,874.72,201.02l-35.05-1.32c3.07,2.55,6.03,6,7.77,10.59
			c3.96,10.43,4.17,73.39,4.11,96.09c0.05,22.69-0.16,85.65-4.11,96.09c-1.74,4.59-4.7,8.04-7.77,10.59l35.05-1.32c0,0,0,0,0,0
			c8.18-16.49,13.27-47.43,13.71-105.36C887.99,248.45,882.9,217.5,874.72,201.02z"/>
		<path class="back" d="M927.44,288.54c0,0-2.29-24.97-8.15-48.16s-22.42-40.26-32.87-43.57c-5.21-1.65-9.1,1.06-11.7,4.2
			c0,0,0,0,0,0c8.18,16.49,13.27,47.43,13.71,105.36c-0.43,57.92-5.53,88.87-13.71,105.36c0,0,0,0,0,0c2.6,3.14,6.5,5.85,11.7,4.2
			c10.45-3.31,27.01-20.38,32.87-43.57s8.15-48.16,8.15-48.16s-4.25-5.57-4.39-17.84C923.19,294.11,927.44,288.54,927.44,288.54z"/>
		<path class="back" d="M895.76,178.04c-3.4-3.23-7.11-5.01-12.43-5.76c-7.44-1.04-18.05-0.04-35.47,1.94
			c-1.85,0.21-3.6,0.49-5.26,0.82c9.41,4.3,24.88,12.74,31.08,23.98c0.35,0.64,0.7,1.31,1.04,2l0,0c2.6-3.14,6.5-5.85,11.7-4.2
			c10.45,3.31,27.01,20.38,32.87,43.57s8.15,48.16,8.15,48.16s-4.25,5.57-4.39,17.84c0.14,12.27,4.39,17.84,4.39,17.84
			s-2.29,24.97-8.15,48.16s-22.42,40.26-32.87,43.57c-5.21,1.65-9.1-1.06-11.7-4.2l0,0c-0.34,0.69-0.69,1.36-1.04,2
			c-6.19,11.24-21.67,19.68-31.08,23.98c1.66,0.34,3.41,0.61,5.26,0.82c17.42,1.98,28.03,2.98,35.47,1.94
			c5.33-0.74,9.03-2.53,12.43-5.76c7.99-7.58,40.39-47.84,41.08-128.34C936.16,225.88,903.75,185.61,895.76,178.04z"/>
		<path class="back" d="M945.7,210.29c-3.26-11.36-11.61-15.95-16.55-17.71c4.41,11.01,8.02,21.83,5.79,21.19h0
			c7.05,21.45,8.62,72.66,8.97,92.61c-0.35,19.95-1.92,71.16-8.97,92.61h0c2.23-0.64-1.38,10.19-5.79,21.19
			c4.94-1.76,13.3-6.35,16.55-17.71c4.28-14.92,6.08-68.62,6.4-96.09C951.78,278.91,949.98,225.21,945.7,210.29z"/>
		<path class="back" d="M955.22,224.33c-1.34-8.65-2.98-16.56-4.87-23.82c-6.02-13.37-13.84-28.89-21.29-38.18
			c-3.27-4.08-7.03-7.8-10.94-11.13c-14.19-12.07-30.43-18.94-33.22-18.94c-2.38,0-0.91,3.37,0.34,5.63
			c20.43,6.28,30.23,26.49,34.57,33.97c2.01,3.47,5.92,12.14,9.35,20.71c4.94,1.76,13.3,6.35,16.55,17.71
			c4.28,14.92,6.08,68.62,6.4,96.09c-0.32,27.46-2.12,81.16-6.4,96.09c-3.26,11.36-11.61,15.95-16.55,17.71
			c-3.43,8.57-7.34,17.25-9.35,20.71c-4.34,7.48-14.14,27.69-34.57,33.97c-1.25,2.25-2.72,5.63-0.34,5.63
			c2.8,0,19.04-6.87,33.22-18.94c3.91-3.33,7.67-7.05,10.94-11.13c7.45-9.29,15.27-24.81,21.29-38.18
			c1.89-7.26,3.53-15.17,4.87-23.82c4.39-28.28,5.75-56.8,5.66-82.04C960.97,281.13,959.61,252.61,955.22,224.33z"/>
		<path class="back" d="M895.76,434.71c-3.4,3.23-7.11,5.01-12.43,5.76c5.68,2.49,18.95,1.59,25.82,0.91
			c0.77-0.77,1.44-1.52,1.98-2.25c6.62-8.92,19.83-39,23.8-40.14c7.05-21.45,8.62-72.66,8.97-92.61
			c-0.35-19.95-1.92-71.16-8.97-92.61c-3.97-1.14-17.17-31.22-23.8-40.14c-0.54-0.73-1.22-1.48-1.98-2.25
			c-6.87-0.68-20.14-1.58-25.82,0.91c5.33,0.74,9.03,2.53,12.43,5.76c7.99,7.58,40.39,47.84,41.08,128.34
			C936.16,386.86,903.75,427.13,895.76,434.71z"/>
		<path class="back" d="M847.44,210.29c-1.74-4.59-4.7-8.04-7.77-10.59l-27.14-1.02v107.69v107.69l27.14-1.02
			c3.07-2.55,6.03-6,7.77-10.59c3.96-10.43,4.17-73.39,4.11-96.09C851.61,283.68,851.39,220.72,847.44,210.29z"/>
		<path class="st10" d="M597.55,436.33c-2.31,0.07-4.65,0.15-7,0.22C592.9,436.48,595.23,436.4,597.55,436.33z"/>
		<path class="left" d="M427.91,467.5c-6.41,0-12.2-0.01-17.25-0.04c-5.41-0.03-10.91-0.08-16.42-0.15l-3.05,5.34
			c6.51,0.08,13.04,0.15,19.45,0.18c31.75,0.17,92.5-0.19,152.03-1.15l2.04-5.41C514.26,467.1,462.5,467.5,427.91,467.5z"/>
		<path class="st10" d="M593.16,471.13c3.29-0.07,6.55-0.13,9.79-0.21C599.71,471,596.44,471.07,593.16,471.13z"/>
		<path class="st10" d="M572.95,471.51c3.34-0.06,6.68-0.12,10-0.18C579.63,471.39,576.3,471.46,572.95,471.51z"/>
		<path class="st10" d="M583.08,471.33c3.31-0.06,6.6-0.13,9.88-0.19C589.69,471.2,586.39,471.27,583.08,471.33z"/>
		<path class="st10" d="M380.49,472.5c0.03,0,0.06,0,0.08,0C380.55,472.5,380.52,472.5,380.49,472.5z"/>
		<path class="st10" d="M401.73,454.22L401.73,454.22c0,0-0.01,0-0.01,0C401.73,454.22,401.73,454.22,401.73,454.22z"/>
		<path class="left" d="M391.18,472.66c-3.55-0.05-7.09-0.1-10.61-0.16c-0.03,0-0.06,0-0.08,0c-3.52-0.06-7.01-0.12-10.45-0.19
			l3.21-5.32c6.9,0.13,13.95,0.24,20.99,0.32L391.18,472.66z"/>
		<path class="st10" d="M597.8,436.32c-0.08,0-0.17,0.01-0.25,0.01C597.63,436.33,597.72,436.32,597.8,436.32z"/>
		<path class="st10" d="M590.55,436.55c-0.02,0-0.05,0-0.07,0C590.5,436.55,590.52,436.55,590.55,436.55z"/>
		<path class="st10" d="M603.02,470.93c-0.02,0-0.04,0-0.07,0C602.97,470.93,602.99,470.93,603.02,470.93L603.02,470.93z"/>
		<path class="st10" d="M582.95,471.33c0.04,0,0.09,0,0.13,0C583.04,471.33,582.99,471.33,582.95,471.33z"/>
		<path class="st10" d="M592.96,471.14c0.07,0,0.13,0,0.2,0C593.09,471.13,593.03,471.14,592.96,471.14z"/>
		<path class="st10" d="M572.79,471.52c0.06,0,0.11,0,0.17,0C572.9,471.51,572.84,471.52,572.79,471.52z"/>
		<path class="left" d="M564.71,466.27c13.41-0.22,26.73-0.47,39.6-0.76c-0.52,2.15-0.97,4.01-1.3,5.41c-0.02,0-0.04,0-0.07,0
			c-3.24,0.07-6.51,0.14-9.79,0.21c-0.06,0-0.13,0-0.2,0c-3.28,0.07-6.57,0.13-9.88,0.19c-0.04,0-0.09,0-0.13,0
			c-3.32,0.06-6.65,0.12-10,0.18c-0.06,0-0.11,0-0.17,0c-3.37,0.06-6.74,0.12-10.12,0.17L564.71,466.27z"/>
		<path class="left" d="M807.77,447.7c-7.28,2.59-16.45,5.58-28.57,8.51c-21.25,5.13-51.57,10.05-96.79,12.21
			c-21.28,1.02-49.21,1.85-79.4,2.51c0.33-1.4,0.78-3.26,1.3-5.41c29.77-0.65,57.18-1.47,77.93-2.47
			c34.68-1.66,60.51-4.91,80.43-8.73c0.05-0.01,0.1-0.02,0.15-0.03c1.22-0.23,2.42-0.47,3.59-0.71c0.08-0.02,0.17-0.03,0.25-0.05
			c1.14-0.23,2.25-0.46,3.35-0.7c0.11-0.02,0.22-0.05,0.32-0.07c1.06-0.23,2.1-0.46,3.13-0.69c0.14-0.03,0.27-0.06,0.4-0.09
			c0.5-0.11,1.01-0.23,1.5-0.34c0.48-0.11,0.95-0.23,1.43-0.34c0.15-0.03,0.29-0.07,0.44-0.1c0.94-0.22,1.86-0.45,2.76-0.67
			c0.16-0.04,0.31-0.08,0.47-0.12c0.88-0.22,1.75-0.44,2.6-0.66c0.17-0.04,0.34-0.09,0.51-0.13c0.83-0.22,1.64-0.43,2.44-0.65
			c0.18-0.05,0.37-0.1,0.55-0.15c0.78-0.21,1.55-0.43,2.3-0.64c0.18-0.05,0.37-0.1,0.55-0.15c0.74-0.21,1.46-0.42,2.18-0.63
			c0.19-0.06,0.39-0.11,0.58-0.17c0.7-0.21,1.38-0.41,2.05-0.62c0.19-0.06,0.39-0.12,0.58-0.18c0.65-0.2,1.29-0.4,1.93-0.6
			c0.21-0.06,0.42-0.13,0.62-0.2c0.61-0.19,1.2-0.39,1.79-0.58c0.21-0.07,0.43-0.14,0.65-0.21c0.58-0.19,1.15-0.38,1.71-0.57
			c0.21-0.07,0.42-0.14,0.63-0.21c0.58-0.2,1.15-0.39,1.71-0.59c0.18-0.06,0.36-0.12,0.53-0.18c0.73-0.25,1.45-0.51,2.16-0.76
			c6.68-2.37,9.81-4.26,11.26-5.4c-0.23-0.01-0.49-0.01-0.76-0.02c-0.06,0-0.12,0-0.19,0c-0.27-0.01-0.55-0.01-0.87-0.02
			c-0.03,0-0.07,0-0.1,0c-0.31-0.01-0.66-0.01-1.01-0.02c-0.1,0-0.2,0-0.31-0.01c-0.31-0.01-0.63-0.01-0.97-0.02
			c-0.16,0-0.32,0-0.48-0.01c-0.32,0-0.65-0.01-0.99-0.01c-0.19,0-0.39-0.01-0.59-0.01c-0.28,0-0.57-0.01-0.87-0.01
			c-0.33,0-0.68-0.01-1.03-0.01c-0.3,0-0.6-0.01-0.92-0.01c-0.3,0-0.6-0.01-0.9-0.01c-0.14,0-0.29,0-0.43,0
			c-1.21-0.01-2.49-0.03-3.86-0.04c-0.11,0-0.22,0-0.33,0c-10.2-0.1-24.56-0.18-41.15-0.23c-10.98-0.03-22.93-0.05-35.3-0.05
			c-0.01,0-0.01,0-0.02,0c-23.14,0-65.67,0.08-90.45,0.59c-7.46,0.15-16,0.37-25.17,0.63c-8.86,0.25-18.29,0.55-27.9,0.87
			c-44.81,1.51-93.3,3.67-103.45,5.09c-6.38,0.89-41.74,6.54-79.28,12.58c-7.68,1.24-15.45,2.49-23.08,3.72
			c-13.48,2.18-26.54,4.28-37.9,6.12c3.08,0.08,6.3,0.16,9.6,0.24c7.62,0.18,15.76,0.36,24.14,0.52l-3.21,5.32
			c-7.95-0.15-15.67-0.32-22.87-0.5c-26.36-0.65-45.92-1.35-45.92-1.35s52.38-8.49,100.48-16.23c0,0,0.01,0,0.01,0
			c36.85-5.93,71.19-11.42,77.53-12.3c10.22-1.43,58.78-3.6,103.96-5.13v0c2.43-0.08,4.85-0.16,7.26-0.24c0.02,0,0.05,0,0.07,0
			c2.35-0.08,4.69-0.15,7-0.22c0.08,0,0.17-0.01,0.25-0.01c2.11-0.07,4.19-0.13,6.26-0.19c0.63-0.02,1.25-0.04,1.87-0.06
			c1.54-0.05,3.06-0.09,4.58-0.13c0.36-0.01,0.74-0.02,1.1-0.03c0,0,0,0,0,0c8.9-0.25,17.24-0.46,24.61-0.61
			c27.92-0.58,81.84-0.66,124.05-0.54c32.52,0.1,58.07,0.32,59.41,0.54C822.72,435.81,827.82,440.56,807.77,447.7z"/>
		<path class="st10" d="M799.8,444.85c0.58-0.19,1.15-0.38,1.71-0.57C800.95,444.47,800.38,444.66,799.8,444.85z"/>
		<path class="st10" d="M802.14,444.07c0.58-0.2,1.15-0.39,1.71-0.59C803.29,443.67,802.72,443.87,802.14,444.07z"/>
		<path class="st10" d="M797.36,445.63c0.61-0.19,1.2-0.39,1.79-0.58C798.56,445.25,797.97,445.44,797.36,445.63z"/>
		<path class="st10" d="M780.48,450.42c0.88-0.22,1.75-0.44,2.6-0.66C782.23,449.97,781.36,450.2,780.48,450.42z"/>
		<path class="st10" d="M783.59,449.62c0.83-0.22,1.64-0.43,2.44-0.65C785.22,449.19,784.41,449.4,783.59,449.62z"/>
		<path class="st10" d="M777.24,451.2c0.94-0.22,1.86-0.45,2.76-0.67C779.1,450.76,778.18,450.98,777.24,451.2z"/>
		<path class="st10" d="M770.34,452.77c1.06-0.23,2.1-0.46,3.13-0.69C772.45,452.31,771.4,452.54,770.34,452.77z"/>
		<path class="st10" d="M766.67,453.54c1.14-0.23,2.25-0.46,3.35-0.7C768.92,453.07,767.81,453.3,766.67,453.54z"/>
		<path class="st10" d="M794.82,446.43c0.65-0.2,1.29-0.4,1.93-0.6C796.11,446.03,795.47,446.23,794.82,446.43z"/>
		<path class="st10" d="M792.18,447.23c0.7-0.21,1.38-0.41,2.05-0.62C793.56,446.81,792.88,447.02,792.18,447.23z"/>
		<path class="st10" d="M786.57,448.82c0.78-0.21,1.55-0.43,2.3-0.64C788.12,448.39,787.35,448.61,786.57,448.82z"/>
		<path class="st10" d="M762.82,454.3c1.22-0.23,2.42-0.47,3.59-0.71C765.24,453.83,764.04,454.06,762.82,454.3z"/>
		<path class="st10" d="M789.43,448.03c0.74-0.21,1.46-0.42,2.18-0.63C790.89,447.61,790.16,447.82,789.43,448.03z"/>
		<path class="left" d="M564.71,466.27c-50.44,0.83-102.21,1.23-136.8,1.23c-6.41,0-12.2-0.01-17.25-0.04
			c-5.41-0.03-10.91-0.08-16.42-0.15l6.25-10.92c37.54-6.04,72.89-11.69,79.28-12.58c10.16-1.42,58.65-3.57,103.45-5.09
			L564.71,466.27L564.71,466.27z"/>
		<path class="st10" d="M807.4,436.97c-1.21-0.01-2.49-0.03-3.86-0.04C804.9,436.94,806.19,436.95,807.4,436.97z"/>
		<path class="st10" d="M804.39,443.29c0.73-0.25,1.45-0.51,2.16-0.76C805.84,442.79,805.12,443.04,804.39,443.29z"/>
		<path class="st10" d="M810.67,437.01c-0.33,0-0.68-0.01-1.03-0.01C810,437,810.34,437,810.67,437.01z"/>
		<path class="st10" d="M808.73,436.98c-0.3,0-0.6-0.01-0.9-0.01C808.13,436.98,808.43,436.98,808.73,436.98z"/>
		<path class="left" d="M775.37,451.65c-0.49,0.11-1,0.23-1.5,0.34C774.38,451.87,774.87,451.76,775.37,451.65
			C775.37,451.64,775.37,451.65,775.37,451.65z"/>
		<path class="left" d="M784.5,445.15c-6.64,0.83-9.22-5.89-9.95-8.41c-3.99-0.02-8.17-0.03-12.49-0.05c0,0,0,0,0,0
			c16.6,0.05,30.95,0.14,41.15,0.23c-0.92-0.01-1.87-0.02-2.86-0.03C798.89,438.2,791.77,444.24,784.5,445.15z"/>
		<path class="left" d="M636.29,437.23c24.79-0.51,67.31-0.59,90.45-0.59c0.01,0,0.01,0,0.02,0c12.36,0,24.31,0.02,35.3,0.05
			c0,0,0,0,0,0c-4.32-0.01-8.79-0.02-13.37-0.03c3,2.95,12.8,12.66,13.23,14.09c0.25,0.84-1.39,2.66-3.12,4.29
			c1.32-0.24,2.62-0.48,3.89-0.72c-19.92,3.82-45.75,7.07-80.43,8.73c-20.75,0.99-48.16,1.81-77.93,2.47
			c2.02-8.33,5.14-20.94,6.81-27.66C620.29,437.6,628.83,437.38,636.29,437.23z"/>
		<path class="st10" d="M776.8,451.31c-0.48,0.11-0.95,0.23-1.43,0.34c0,0,0,0-0.01-0.01C775.85,451.53,776.33,451.42,776.8,451.31z
			"/>
		<path class="st10" d="M814.88,437.07c-0.1,0-0.2,0-0.31-0.01C814.68,437.07,814.78,437.07,814.88,437.07z"/>
		<path class="st10" d="M812.13,437.03c-0.19,0-0.39-0.01-0.59-0.01C811.74,437.02,811.94,437.02,812.13,437.03z"/>
		<path class="st10" d="M815.99,437.09c-0.03,0-0.07,0-0.1,0C815.93,437.09,815.96,437.09,815.99,437.09z"/>
		<path class="left" d="M373.25,467c-8.37-0.15-16.51-0.33-24.14-0.52c-3.3-0.08-6.52-0.16-9.6-0.24
			c11.36-1.84,24.41-3.95,37.9-6.12L373.25,467z"/>
		<path class="st10" d="M813.61,437.05c-0.16,0-0.32,0-0.48-0.01C813.29,437.04,813.45,437.05,813.61,437.05z"/>
		<path class="st10" d="M817.05,437.11c-0.06,0-0.12,0-0.19,0C816.92,437.11,816.99,437.11,817.05,437.11z"/>
		<path class="st4" d="M394.24,467.32c-7.04-0.08-14.09-0.19-20.99-0.32l4.16-6.88c7.63-1.23,15.4-2.48,23.08-3.72L394.24,467.32z"
			/>
		<path class="st4" d="M564.71,466.27l18.51-27.54c9.61-0.32,19.05-0.62,27.9-0.87c-1.67,6.72-4.79,19.33-6.81,27.66
			C591.44,465.8,578.12,466.05,564.71,466.27L564.71,466.27z"/>
		<path class="st10" d="M762.68,454.32c0.05-0.01,0.1-0.02,0.15-0.03C762.77,454.31,762.73,454.32,762.68,454.32z"/>
		<path class="st10" d="M770.02,452.84c0.11-0.02,0.22-0.05,0.32-0.07C770.24,452.79,770.13,452.81,770.02,452.84z"/>
		<path class="st10" d="M773.47,452.08c0.14-0.03,0.27-0.06,0.4-0.09C773.74,452.02,773.61,452.05,773.47,452.08z"/>
		<path class="st10" d="M766.42,453.59c0.08-0.02,0.17-0.03,0.25-0.05C766.59,453.55,766.5,453.57,766.42,453.59z"/>
		<path class="st10" d="M813.13,437.04c-0.32,0-0.65-0.01-0.99-0.01C812.48,437.03,812.81,437.04,813.13,437.04z"/>
		<path class="st10" d="M814.57,437.06c-0.31-0.01-0.63-0.01-0.97-0.02C813.94,437.05,814.27,437.06,814.57,437.06z"/>
		<path class="st10" d="M815.89,437.09c-0.31-0.01-0.65-0.01-1.01-0.02C815.24,437.08,815.58,437.08,815.89,437.09z"/>
		<path class="st10" d="M817.81,437.13c-0.23-0.01-0.49-0.01-0.76-0.02C817.32,437.12,817.58,437.13,817.81,437.13z"/>
		<path class="st10" d="M803.86,443.48c0.18-0.06,0.36-0.12,0.53-0.18C804.21,443.36,804.03,443.42,803.86,443.48z"/>
		<path class="st10" d="M816.86,437.11c-0.27-0.01-0.56-0.01-0.87-0.02C816.31,437.1,816.59,437.1,816.86,437.11z"/>
		<path class="st10" d="M803.54,436.93c-0.11,0-0.22,0-0.33,0C803.32,436.93,803.43,436.93,803.54,436.93z"/>
		<path class="st10" d="M807.82,436.97c-0.14,0-0.29,0-0.43,0C807.54,436.97,807.68,436.97,807.82,436.97z"/>
		<path class="st10" d="M809.65,436.99c-0.3,0-0.6-0.01-0.92-0.01C809.04,436.99,809.35,436.99,809.65,436.99z"/>
		<path class="st10" d="M811.54,437.02c-0.28,0-0.57-0.01-0.87-0.01C810.97,437.01,811.26,437.01,811.54,437.02z"/>
		<path class="st10" d="M794.23,446.61c0.19-0.06,0.39-0.12,0.58-0.18C794.62,446.49,794.43,446.55,794.23,446.61z"/>
		<path class="st10" d="M786.02,448.97c0.18-0.05,0.37-0.1,0.55-0.15C786.39,448.87,786.21,448.92,786.02,448.97z"/>
		<path class="st10" d="M783.08,449.75c0.17-0.04,0.34-0.09,0.51-0.13C783.42,449.66,783.25,449.71,783.08,449.75z"/>
		<path class="st10" d="M780.01,450.53c0.16-0.04,0.31-0.08,0.47-0.12C780.32,450.46,780.16,450.49,780.01,450.53z"/>
		<path class="st10" d="M788.88,448.18c0.18-0.05,0.37-0.1,0.55-0.15C789.24,448.08,789.06,448.13,788.88,448.18z"/>
		<path class="st10" d="M796.74,445.83c0.21-0.06,0.42-0.13,0.62-0.2C797.16,445.7,796.95,445.76,796.74,445.83z"/>
		<path class="st10" d="M791.6,447.4c0.19-0.06,0.39-0.11,0.58-0.17C791.99,447.28,791.79,447.34,791.6,447.4z"/>
		<path class="st10" d="M799.15,445.06c0.21-0.07,0.43-0.14,0.65-0.21C799.59,444.92,799.37,444.99,799.15,445.06z"/>
		<path class="st10" d="M801.51,444.28c0.21-0.07,0.42-0.14,0.63-0.21C801.93,444.14,801.72,444.21,801.51,444.28z"/>
		<path class="st10" d="M776.8,451.31c0.15-0.03,0.29-0.07,0.44-0.1C777.1,451.24,776.95,451.27,776.8,451.31z"/>
		<path class="st4" d="M761.91,450.75c-0.43-1.44-10.22-11.14-13.23-14.09c4.59,0.01,9.05,0.02,13.37,0.03
			c2.71,2.94,8.02,8.77,13.31,14.95c-0.5,0.12-0.99,0.23-1.49,0.35c-0.13,0.03-0.27,0.06-0.4,0.09c-1.02,0.23-2.07,0.46-3.13,0.69
			c-0.11,0.02-0.22,0.05-0.32,0.07c-1.1,0.23-2.21,0.47-3.35,0.7c-0.08,0.02-0.17,0.03-0.25,0.05c-1.18,0.24-2.37,0.47-3.59,0.71
			c-0.05,0.01-0.1,0.02-0.15,0.03c-1.27,0.24-2.57,0.49-3.89,0.72C760.52,453.41,762.16,451.59,761.91,450.75z"/>
		<path class="st4" d="M762.06,436.69c4.33,0.01,8.5,0.03,12.49,0.05c0.73,2.52,3.31,9.24,9.95,8.41
			c7.27-0.91,14.38-6.95,15.85-8.25c0.99,0.01,1.94,0.02,2.86,0.03c0.11,0,0.22,0,0.33,0c1.37,0.01,2.65,0.03,3.86,0.04
			c0.14,0,0.29,0,0.43,0c0.31,0,0.61,0.01,0.9,0.01c0.31,0,0.62,0.01,0.92,0.01c0.35,0,0.69,0.01,1.03,0.01
			c0.29,0,0.59,0.01,0.87,0.01c0.2,0,0.4,0.01,0.59,0.01c0.34,0,0.67,0.01,0.99,0.01c0.16,0,0.32,0,0.48,0.01
			c0.34,0.01,0.66,0.01,0.97,0.02c0.1,0,0.21,0,0.31,0.01c0.35,0.01,0.69,0.01,1.01,0.02c0.03,0,0.07,0,0.1,0
			c0.31,0.01,0.6,0.01,0.87,0.02c0.06,0,0.13,0,0.19,0c0.28,0.01,0.54,0.01,0.76,0.02c-1.45,1.14-4.58,3.03-11.26,5.4
			c-0.71,0.25-1.43,0.51-2.16,0.76c-0.17,0.06-0.36,0.12-0.53,0.18c-0.57,0.2-1.13,0.39-1.71,0.59c-0.21,0.07-0.42,0.14-0.63,0.21
			c-0.56,0.19-1.13,0.38-1.71,0.57c-0.21,0.07-0.43,0.14-0.65,0.21c-0.59,0.19-1.18,0.39-1.79,0.58c-0.2,0.06-0.41,0.13-0.62,0.2
			c-0.63,0.2-1.27,0.4-1.93,0.6c-0.19,0.06-0.39,0.12-0.58,0.18c-0.68,0.21-1.36,0.41-2.05,0.62c-0.19,0.06-0.39,0.11-0.58,0.17
			c-0.72,0.21-1.44,0.42-2.18,0.63c-0.18,0.05-0.37,0.1-0.55,0.15c-0.76,0.21-1.52,0.43-2.3,0.64c-0.18,0.05-0.37,0.1-0.55,0.15
			c-0.8,0.22-1.61,0.43-2.44,0.65c-0.17,0.04-0.34,0.09-0.51,0.13c-0.85,0.22-1.72,0.44-2.6,0.66c-0.16,0.04-0.31,0.08-0.47,0.12
			c-0.91,0.22-1.83,0.45-2.76,0.67c-0.15,0.03-0.29,0.07-0.44,0.1c-0.47,0.11-0.96,0.22-1.44,0.33
			C770.08,445.46,764.77,439.63,762.06,436.69z"/>
		<g>
			<path class="left_back" d="M930.24,410.03c-0.89,2.51-2.03,5.55-3.48,9.19c-3.4,8.48-7.26,17.05-9.19,20.38
				c-0.36,0.63-0.77,1.35-1.21,2.14c-4.59,8.18-14.14,25.2-31.88,30.66c-1.21,0.37-2.33,0.66-3.43,0.9
				c-1.81,0.38-3.58,0.7-5.41,0.98c-3.83,0.58-7.48,0.88-10.87,0.88c-4.94,0-8.54-0.63-10.92-1.26c2.98-2.36,8.05-5.7,14.66-7.57
				c10.73-3.03,33.14-13.8,42.45-23.12c0.91-0.91,1.64-1.74,2.23-2.54c2.98-4.01,7.16-11.99,11.2-19.7
				C926.21,417.52,928.3,413.52,930.24,410.03 M935.11,398.95c-0.05,0-0.11,0.01-0.18,0.03h0c-3.97,1.14-17.17,31.22-23.8,40.14
				c-0.54,0.73-1.22,1.48-1.98,2.25c-8.64,8.65-30.57,19.42-41.33,22.46c-11.72,3.31-18.85,10.96-18.85,10.96s4.85,2.93,15.81,2.93
				c3.21,0,6.95-0.25,11.25-0.9c1.76-0.27,3.6-0.6,5.55-1.01c1.26-0.27,2.47-0.59,3.65-0.95c20.43-6.28,30.23-26.49,34.57-33.97
				c2.01-3.47,5.92-12.14,9.35-20.71C933.43,409.48,936.96,398.95,935.11,398.95L935.11,398.95z"/>
		</g>
		<path class="st4" d="M292.4,451.94c-3.48,0.09-5.42,0.12-5.42,0.12s-11.55-14.9-19.02-38c-7.2-22.24-11.87-52.69-12.21-107.69
			c0.34-55,5.01-85.45,12.21-107.69c7.47-23.1,19.02-38,19.02-38s1.94,0.03,5.42,0.12c13.47,0.36,50.29,1.7,89.74,6.29
			c49.64,5.78,92.28,16.22,92.28,16.22s-2.04-4.08-4.08-5.27c-2.04-1.2-127.65-20.97-145.49-22.5c-17.84-1.53-40.77,2.16-40.77,2.16
			s-26.84,33.85-30.28,91.33c-1.25,20.82-2.32,40.63-2.7,57.34c0.38,16.71,1.46,36.53,2.7,57.34c3.44,57.48,30.28,91.33,30.28,91.33
			s22.93,3.69,40.77,2.16c17.84-1.53,143.45-21.31,145.49-22.5c2.04-1.2,4.08-5.27,4.08-5.27s-42.64,10.45-92.28,16.22
			C342.69,450.25,305.87,451.59,292.4,451.94z"/>
		<path class="st10" d="M268.73,306.37c0.28-17.08,1.34-53.19,5.33-82.89c5.22-38.81,17.37-60.97,18.33-62.68
			c-3.48-0.09-5.42-0.12-5.42-0.12s-11.55,14.9-19.02,38c-7.2,22.24-11.87,52.69-12.21,107.69c0.34,55,5.01,85.45,12.21,107.69
			c7.47,23.1,19.02,38,19.02,38s1.94-0.03,5.42-0.12c-0.96-1.71-13.11-23.87-18.33-62.68C270.07,359.56,269.01,323.45,268.73,306.37
			z"/>
		<path class="top" d="M674.6,306.37V197.08l0,0c-31.23-0.58-58.57-1.35-70-2.33c-22.48-1.93-74.53-6.52-105.58-9.27
			c0,0-6.24,53.15-5.63,120.89c-0.61,67.73,5.63,120.89,5.63,120.89c31.05-2.74,83.1-7.34,105.58-9.27
			c11.43-0.98,38.77-1.75,70-2.33l0,0V306.37z"/>
		<path class="top" d="M493.39,306.37c-0.61-67.73,5.63-120.89,5.63-120.89c-14.63-1.29-24.6-2.18-24.6-2.18
			s-2.29,10.45-4.33,31.34c-1.67,17.09-4.02,54.64-4.82,91.73c0.8,37.09,3.15,74.64,4.82,91.73c2.04,20.89,4.33,31.34,4.33,31.34
			s9.97-0.88,24.6-2.18C499.02,427.26,492.78,374.11,493.39,306.37z"/>
		<path class="top" d="M674.6,197.08L674.6,197.08l0,109.29v109.29l0,0c61.44-1.15,137.93-1.6,137.93-1.6V306.37V198.68
			C812.53,198.68,736.04,198.23,674.6,197.08z"/>
		<path class="st10" d="M455.48,359.71c0,0-10.87-13.25-11.55-17.33c-0.68-4.08-1.02-18.01-1.02-18.01s-8.15,7.13-12.23,7.13
			c-4.08,0-32.61-10.53-35.67-13.93c-1.43-1.59-1.9-6.48-1.98-11.21c0.09-4.74,0.55-9.62,1.98-11.21
			c3.06-3.4,31.59-13.93,35.67-13.93c4.08,0,12.23,7.13,12.23,7.13s0.34-13.93,1.02-18.01c0.68-4.08,11.55-17.33,11.55-17.33
			c0.34-12.57,6.12-46.88,6.46-54.7c0.34-7.81-4.76-12.57-13.93-15.03s-123.66-17.24-123.66-17.24s-13.25-0.98-16.99,10.04
			c-3.55,10.47-13.07,43.62-14.89,130.27c1.82,86.64,11.34,119.8,14.89,130.27c3.74,11.02,16.99,10.04,16.99,10.04
			s114.49-14.78,123.66-17.24c9.17-2.46,14.27-7.22,13.93-15.03C461.6,406.59,455.82,372.28,455.48,359.71z"/>
		<path class="st10" d="M619.23,231.29c-5.78-1.36-76.44-3.74-86.97-3.74c-10.53,0-14.61,5.44-16.31,9.17
			c-1.24,2.74-1.94,46.42-2.23,69.64c0.28,23.22,0.98,66.91,2.23,69.64c1.7,3.74,5.78,9.17,16.31,9.17
			c10.53,0,81.19-2.38,86.97-3.74c5.78-1.36,13.25-5.41,13.25-12.05c0-4.17,0-38.23,0-63.03s0-58.87,0-63.03
			C632.48,236.71,625,232.65,619.23,231.29z"/>
		<path class="st11" d="M746.83,381.71h-28.61c-7.01,0-12.7-5.69-12.7-12.7V243.73c0-7.01,5.69-12.7,12.7-12.7h28.61
			c7.01,0,12.7,5.69,12.7,12.7v125.28C759.53,376.03,753.85,381.71,746.83,381.71z"/>
		<path class="st4" d="M783.1,312.74h-13.5c-1.2,0-2.17-0.97-2.17-2.17v-8.41c0-1.2,0.97-2.17,2.17-2.17h13.5
			c1.2,0,2.17,0.97,2.17,2.17v8.41C785.27,311.77,784.3,312.74,783.1,312.74z"/>
		
			<rect x="780.17" y="304.5" transform="matrix(-1 -1.224647e-16 1.224647e-16 -1 1592.7031 612.744)" class="st4" width="32.36" height="3.74"/>
		<g>
			<path class="front_left" d="M206.12,479.12c0,0-20.38,4.59-38.73,0c-18.35-4.59-48.28-28.05-63.83-45.1
				c-10.69-11.72-16.18-26.75-11.08-26.75c1.2,0,5.65,1.56,11.99,4.07c20.49,8.1,60.75,26.05,75.15,32.88
				c12.63,5.99,30.28,15.69,35.27,23.63C217.92,472.65,216.31,476.82,206.12,479.12z"/>
			<path class="st10" d="M114.25,419.24c-2.94-1.95-11.96-7.77-13.11-5.18c-1.66,3.74,13.93,21.45,25.82,32.64
				s22.42,23.17,36.01,23.13s12.91-5.36,9.17-7.97s-21.13-15.32-34.49-25.37C122.55,425.11,120.31,423.26,114.25,419.24z"/>
			<path class="st10" d="M214.82,475.2c-5.36-2.11-14.87-4.8-28.07-4.49c-14.18,0.34-27.8,1.08-35.38,1.54
				c5.81,3.25,11.3,5.68,16.02,6.86c0.87,0.22,1.74,0.41,2.62,0.58c6.2-1.15,16.52-2.12,27.68,0.74c5.13-0.59,8.43-1.33,8.43-1.33
				C210.51,478.13,213.3,476.79,214.82,475.2z"/>
			<path class="st10" d="M172.15,461.86c-3.36-2.34-17.73-12.83-30.3-22.23c-1.59,2.56-4.21,7.41-2.74,9.43
				c1.73,2.38,13.16,15.65,16.6,19.63c2.34,0.74,4.75,1.14,7.27,1.14C176.57,469.78,175.89,464.47,172.15,461.86z"/>
			<path class="st10" d="M124.99,419.85c14.65,12.68,43.88,37.33,53.11,40.27c7.8,2.48,22.88,3.2,33.08,3.4
				c-7.34-6.91-21.15-14.37-31.55-19.3C169.19,439.27,145.21,428.5,124.99,419.85z"/>
			<path class="st10" d="M163.32,460.12c0,0-5.35-7.5-9.9-9.28c-3.02-1.18-8.92-0.31-12.55,0.41c3.17,3.85,9.4,11.12,13.03,15.33
				c2.43,0.08,5.55,0.21,7.13,0.41C163.83,467.36,163.32,460.12,163.32,460.12z"/>
		</g>
		<g>
			<path class="st4" d="M93.1,409.98c1.12,0.29,3.86,1.16,10.42,3.75c5.28,2.09,12.16,4.94,20.46,8.49l1.47,0.63l0.49,0.21
				l0.26,0.11l1.46,0.63l0.47,0.2l0.29,0.12l2.58,1.11l0.24,0.1l0.62,0.27l1.47,0.64l0.75,0.33l1.53,0.67l0.12,0.05l0.09,0.04
				c1.06,0.46,2.12,0.92,3.18,1.39l0.05,0.02l0.79,0.35l1.47,0.64l0.58,0.25l0.22,0.09l2.44,1.07l0.13,0.06l0.86,0.38l1.35,0.6
				l0.15,0.06l0.77,0.34l1.35,0.6l0.88,0.39l0.34,0.15l1.87,0.83l0.12,0.05l0.96,0.43l0.84,0.37l0.31,0.14l1.18,0.53l0.34,0.15
				l0.75,0.33l1.92,0.86l0.49,0.22l0.37,0.17l1.25,0.56l0.95,0.43l1.47,0.67l0.21,0.1l0.3,0.14l1.9,0.86l0.72,0.33l1.25,0.57
				l0.23,0.1l0.44,0.2l1.71,0.78l0.29,0.13l0.23,0.11l1.29,0.59l0.3,0.14l0.19,0.09l1.33,0.61l0.2,0.09l0.13,0.06l1.5,0.7l0.27,0.13
				l0.1,0.05l1.07,0.5l0.41,0.19l1.26,0.59c0.58,0.27,1.17,0.56,1.77,0.85l0.1,0.05l0.23,0.11c0.59,0.29,1.19,0.58,1.79,0.88
				l0.19,0.09l0.09,0.05c0.63,0.31,1.26,0.63,1.91,0.96c0.65,0.33,1.31,0.67,1.97,1.02l0.24,0.13c0.66,0.35,1.33,0.7,2,1.06
				l0.06,0.03l0.05,0.03l0,0c1.43,0.77,2.82,1.54,4.14,2.29l0.06,0.03l0.05,0.03c2.19,1.25,4.26,2.49,6.15,3.7
				c4.24,2.7,7.62,5.24,10.07,7.54c1.47,1.39,2.59,2.67,3.31,3.82c1.68,2.68,0.74,3.66,0.23,4.2l-0.24,0.25
				c-0.14,0.12-0.31,0.26-0.51,0.4l-0.14,0.11l-0.08,0.06c-0.09,0.06-0.2,0.12-0.3,0.18l-0.1,0.06l-0.05,0.03
				c-0.1,0.06-0.21,0.12-0.32,0.18c-0.14,0.08-0.3,0.15-0.45,0.23c-0.16,0.08-0.33,0.16-0.51,0.24c-0.16,0.07-0.33,0.14-0.51,0.21
				c-0.21,0.09-0.44,0.17-0.67,0.25l-0.07,0.03c-0.15,0.05-0.3,0.11-0.46,0.16c-0.28,0.09-0.59,0.18-0.89,0.27l-0.22,0.07
				c-0.09,0.03-0.18,0.06-0.28,0.08c-0.55,0.15-1.06,0.28-1.57,0.39l-0.05,0.01l-0.1,0.02l-0.11,0.02l-0.11,0.02l-0.17,0.03
				l0.51,2.52l-0.57-2.51c-0.26,0.05-0.61,0.12-1.03,0.2l0.43,2.54l-0.51-2.52l-0.42,0.08l-0.13,0.02l-0.47,0.08l0.43,2.54
				l-0.49-2.53c-0.55,0.09-1.18,0.19-1.91,0.3l-0.11,0.02l-0.64,0.09l-0.2,0.03l-0.67,0.09l-0.14,0.02l-0.09,0.01
				c-0.37,0.05-0.76,0.1-1.16,0.14l-0.46,0.05c-3.99,0.46-7.96,0.69-11.79,0.69c-5.43,0-10.51-0.47-15.08-1.4
				c-0.96-0.2-1.76-0.37-2.5-0.56c-0.53-0.13-1.09-0.29-1.66-0.46c-0.06-0.02-0.12-0.04-0.18-0.06l-0.24-0.08
				c-0.44-0.14-0.89-0.28-1.34-0.44l-0.16-0.06l-0.22-0.08c-0.48-0.17-0.96-0.35-1.46-0.54l-0.12-0.05l-0.18-0.07
				c-0.53-0.21-1.07-0.43-1.61-0.67l-0.07-0.03l-0.13-0.06c-0.59-0.26-1.18-0.52-1.81-0.82l-0.08-0.04
				c-0.64-0.3-1.28-0.61-1.92-0.93l-0.04-0.02l-0.01-0.01c-1.31-0.66-2.69-1.39-4.09-2.17l0,0l-0.06-0.04
				c-15.32-8.56-34.71-24.08-47.16-37.72C96.94,422.94,93.04,413.05,93.1,409.98 M92.49,407.27c-5.1,0,0.39,15.03,11.08,26.75
				c11.55,12.66,31.03,28.86,47.8,38.23c0,0,0,0,0,0c0,0,0,0,0,0c1.44,0.81,2.86,1.56,4.26,2.26c0.01,0.01,0.03,0.01,0.04,0.02
				c0.67,0.33,1.33,0.65,1.99,0.96c0.04,0.02,0.08,0.04,0.11,0.05c0.62,0.29,1.24,0.57,1.85,0.83c0.07,0.03,0.14,0.06,0.2,0.09
				c0.57,0.24,1.13,0.47,1.68,0.69c0.11,0.04,0.21,0.09,0.32,0.13c0.52,0.2,1.02,0.39,1.53,0.57c0.13,0.05,0.27,0.1,0.4,0.15
				c0.48,0.17,0.95,0.32,1.42,0.46c0.15,0.05,0.3,0.1,0.44,0.14c0.61,0.18,1.2,0.35,1.78,0.49c0.87,0.22,1.74,0.41,2.62,0.58
				c5.3,1.07,10.67,1.45,15.59,1.45c4.55,0,8.71-0.32,12.08-0.71c0,0,0,0,0.01,0c0.06-0.01,0.12-0.01,0.18-0.02
				c0.51-0.06,1-0.12,1.47-0.18c0.08-0.01,0.15-0.02,0.23-0.03c0.24-0.03,0.46-0.06,0.69-0.09c0.07-0.01,0.14-0.02,0.21-0.03
				c0.23-0.03,0.45-0.06,0.66-0.09c0.05-0.01,0.1-0.02,0.15-0.02c0.71-0.11,1.35-0.21,1.92-0.3c0.02,0,0.04-0.01,0.06-0.01
				c0.17-0.03,0.33-0.06,0.49-0.08c0.05-0.01,0.09-0.02,0.14-0.02c0.15-0.03,0.3-0.05,0.43-0.08c0.03-0.01,0.05-0.01,0.08-0.02
				c0.44-0.08,0.79-0.15,1.07-0.21c0.02,0,0.04-0.01,0.06-0.01c0.07-0.01,0.12-0.03,0.18-0.04c0.04-0.01,0.08-0.02,0.11-0.02
				c0.05-0.01,0.09-0.02,0.12-0.03c0.02,0,0.04-0.01,0.05-0.01c0.03-0.01,0.05-0.01,0.07-0.02c0.02,0,0.04-0.01,0.04-0.01
				c0.6-0.13,1.16-0.28,1.69-0.42c0.19-0.05,0.36-0.11,0.54-0.16c0.33-0.1,0.67-0.2,0.98-0.3c0.21-0.07,0.4-0.14,0.6-0.21
				c0.26-0.09,0.51-0.19,0.75-0.28c0.2-0.08,0.4-0.16,0.58-0.24c0.21-0.09,0.41-0.18,0.6-0.28c0.19-0.09,0.38-0.18,0.55-0.28
				c0.16-0.09,0.31-0.18,0.47-0.27c0.18-0.1,0.36-0.21,0.52-0.31c0.11-0.07,0.21-0.15,0.31-0.22c0.42-0.31,0.81-0.62,1.12-0.95
				c-0.01,0-0.01-0.01-0.02-0.01c2.01-2.09,1.81-4.62,0.09-7.35c-0.88-1.4-2.16-2.85-3.72-4.33c0,0,0,0,0,0
				c-2.75-2.59-6.4-5.26-10.45-7.84c-0.01,0-0.01-0.01-0.02-0.01c-2.01-1.28-4.11-2.54-6.24-3.75c-0.04-0.02-0.08-0.04-0.12-0.07
				c-1.39-0.79-2.79-1.57-4.19-2.32c-0.04-0.02-0.08-0.04-0.12-0.06c-0.67-0.36-1.35-0.72-2.01-1.07c-0.08-0.04-0.17-0.09-0.25-0.13
				c-0.67-0.35-1.33-0.69-1.99-1.03c0,0-0.01,0-0.01,0c-0.65-0.33-1.29-0.65-1.92-0.97c-0.1-0.05-0.19-0.1-0.29-0.14
				c-0.61-0.3-1.21-0.6-1.81-0.89c-0.11-0.05-0.22-0.11-0.33-0.16c-0.6-0.29-1.2-0.58-1.79-0.86c-0.4-0.19-0.83-0.39-1.26-0.6
				c-0.13-0.06-0.27-0.13-0.41-0.19c-0.35-0.16-0.71-0.33-1.07-0.5c-0.12-0.06-0.24-0.11-0.37-0.17c-0.48-0.23-0.98-0.46-1.5-0.7
				c-0.11-0.05-0.22-0.1-0.32-0.15c-0.43-0.2-0.88-0.41-1.34-0.62c-0.17-0.08-0.33-0.15-0.5-0.23c-0.42-0.19-0.86-0.39-1.29-0.59
				c-0.18-0.08-0.35-0.16-0.53-0.24c-0.56-0.26-1.13-0.52-1.71-0.78c-0.22-0.1-0.45-0.2-0.67-0.31c-0.41-0.19-0.83-0.38-1.25-0.57
				c-0.24-0.11-0.48-0.22-0.72-0.33c-0.63-0.28-1.26-0.57-1.91-0.86c-0.17-0.08-0.34-0.15-0.51-0.23c-0.49-0.22-0.98-0.44-1.47-0.67
				c-0.32-0.14-0.64-0.29-0.96-0.43c-0.41-0.19-0.83-0.37-1.25-0.56c-0.29-0.13-0.57-0.26-0.86-0.39c-0.63-0.28-1.27-0.57-1.92-0.86
				c-0.36-0.16-0.72-0.32-1.09-0.49c-0.39-0.17-0.78-0.35-1.18-0.53c-0.38-0.17-0.77-0.34-1.15-0.52c-0.36-0.16-0.72-0.32-1.08-0.48
				c-0.62-0.28-1.24-0.55-1.87-0.83c-0.41-0.18-0.81-0.36-1.22-0.54c-0.45-0.2-0.9-0.4-1.35-0.6c-0.31-0.14-0.61-0.27-0.92-0.41
				c-0.45-0.2-0.9-0.4-1.35-0.6c-0.33-0.15-0.66-0.29-1-0.44c-0.81-0.36-1.62-0.72-2.44-1.07c-0.27-0.12-0.53-0.23-0.8-0.35
				c-0.49-0.22-0.98-0.43-1.47-0.65c-0.28-0.12-0.56-0.25-0.84-0.37c-1.06-0.46-2.12-0.93-3.18-1.39c-0.07-0.03-0.14-0.06-0.21-0.09
				c-0.51-0.22-1.02-0.44-1.53-0.67c-0.25-0.11-0.5-0.22-0.75-0.33c-0.49-0.21-0.98-0.43-1.47-0.64c-0.29-0.12-0.57-0.25-0.85-0.37
				c-0.86-0.37-1.73-0.75-2.58-1.12c-0.25-0.11-0.51-0.22-0.76-0.33c-0.49-0.21-0.98-0.42-1.46-0.63c-0.25-0.11-0.5-0.22-0.76-0.32
				c-0.49-0.21-0.99-0.42-1.48-0.63c0,0,0,0-0.01,0c-7.7-3.29-14.86-6.28-20.52-8.51C98.14,408.83,93.69,407.27,92.49,407.27
				L92.49,407.27z"/>
		</g>
		<g>
			<path class="st10" d="M206.12,133.62c0,0-20.38-4.59-38.73,0c-18.35,4.59-48.28,28.05-63.83,45.1
				c-10.69,11.72-16.18,26.75-11.08,26.75c1.2,0,5.65-1.56,11.99-4.07c20.49-8.1,60.75-26.05,75.15-32.88
				c12.63-5.99,30.28-15.69,35.27-23.63C217.92,140.09,216.31,135.93,206.12,133.62z"/>
			<path class="st10" d="M114.25,193.5c-2.94,1.95-11.96,7.77-13.11,5.18c-1.66-3.74,13.93-21.45,25.82-32.64
				s22.42-23.17,36.01-23.13c13.59,0.05,12.91,5.36,9.17,7.97s-21.13,15.32-34.49,25.37C122.55,187.64,120.31,189.48,114.25,193.5z"
				/>
			<path class="st10" d="M214.82,137.54c-5.36,2.11-14.87,4.8-28.07,4.49c-14.18-0.34-27.8-1.08-35.38-1.54
				c5.81-3.25,11.3-5.68,16.02-6.87c0.87-0.22,1.74-0.41,2.62-0.58c6.2,1.15,16.52,2.12,27.68-0.74c5.13,0.59,8.43,1.33,8.43,1.33
				C210.51,134.62,213.3,135.96,214.82,137.54z"/>
			<path class="st10" d="M172.15,150.89c-3.36,2.34-17.73,12.83-30.3,22.23c-1.59-2.56-4.21-7.41-2.74-9.43
				c1.73-2.38,13.16-15.65,16.6-19.63c2.34-0.74,4.75-1.14,7.27-1.14C176.57,142.96,175.89,148.27,172.15,150.89z"/>
			<path class="st10" d="M124.99,192.89c14.65-12.68,43.88-37.33,53.11-40.27c7.8-2.48,22.88-3.2,33.08-3.4
				c-7.34,6.91-21.15,14.37-31.55,19.3C169.19,173.47,145.21,184.25,124.99,192.89z"/>
			<path class="st10" d="M163.32,152.63c0,0-5.35,7.5-9.9,9.28c-3.02,1.18-8.92,0.31-12.55-0.41c3.17-3.85,9.4-11.12,13.03-15.33
				c2.43-0.08,5.55-0.21,7.13-0.41C163.83,145.39,163.32,152.63,163.32,152.63z"/>
		</g>
		<g>
			<path class="st4" d="M203.2,133.07l-0.37,2.55l0.47,0.08l0.13,0.02l0.42,0.08l0.46-2.53l-0.38,2.55c0.42,0.08,0.76,0.14,1.02,0.2
				l0.07,0.01l0.17,0.04l0.1,0.02l0.11,0.02l0.54-2.52l-0.45,2.54l0.05,0.01c0.52,0.12,1.04,0.25,1.58,0.4
				c0.1,0.03,0.19,0.05,0.28,0.08l0.22,0.06c0.31,0.09,0.61,0.18,0.89,0.27c0.16,0.05,0.31,0.11,0.47,0.16l0.07,0.03
				c0.23,0.08,0.45,0.16,0.67,0.25c0.17,0.07,0.34,0.14,0.51,0.21c0.18,0.08,0.34,0.16,0.51,0.23c0.16,0.08,0.31,0.15,0.46,0.23
				c0.11,0.06,0.21,0.12,0.32,0.18l0.05,0.03l0.1,0.06c0.1,0.06,0.21,0.12,0.3,0.18l0.08,0.06l0.14,0.1
				c0.19,0.14,0.35,0.26,0.5,0.39l0.25,0.26c0.51,0.53,1.46,1.52-0.23,4.2c-0.72,1.14-1.82,2.42-3.28,3.8l0,0l-0.03,0.03
				c-2.43,2.29-5.82,4.83-10.09,7.55c-1.88,1.2-3.94,2.44-6.13,3.69l-0.12,0.07c-1.32,0.75-2.71,1.52-4.14,2.29l-0.05,0.03
				l-0.06,0.03c-0.67,0.36-1.33,0.71-1.99,1.05l-0.25,0.13c-0.66,0.34-1.32,0.68-1.98,1.02c-0.64,0.33-1.27,0.64-1.9,0.96
				l-0.11,0.05l-0.18,0.09c-0.6,0.3-1.2,0.59-1.79,0.88l-0.21,0.1l-0.12,0.06c-0.6,0.29-1.19,0.57-1.77,0.85l-1.25,0.59l-0.41,0.19
				l-1.07,0.5l-0.12,0.05l-0.25,0.12l-1.5,0.7l-0.13,0.06l-0.2,0.09l-1.33,0.61l-0.19,0.09l-0.31,0.14l-1.29,0.59l-0.23,0.11
				l-0.3,0.14l-1.71,0.78l-0.44,0.2l-0.23,0.1l-1.25,0.57l-0.72,0.33l-1.9,0.86l-0.3,0.14l-0.21,0.1l-1.47,0.67l-0.95,0.43
				l-1.25,0.56l-0.39,0.18l-0.47,0.21l-1.92,0.86l-0.96,0.43l-0.24,0.11l-0.97,0.43l-1.25,0.56l-0.91,0.41l-0.15,0.07l-1.87,0.83
				l-0.34,0.15l-0.88,0.39l-1.35,0.6l-0.83,0.37l-0.08,0.04l-1.35,0.6l-0.86,0.38l-0.13,0.06l-2.44,1.07l-0.19,0.09l-0.6,0.26
				l-1.47,0.64l-0.79,0.35l-0.05,0.02c-1.06,0.46-2.12,0.93-3.18,1.39l-0.09,0.04l-0.12,0.05l-1.53,0.67l-0.75,0.33l-1.47,0.64
				l-0.63,0.27l-0.23,0.1l-2.58,1.11l-0.3,0.13l-0.46,0.2l-1.46,0.63l-0.32,0.14l-0.43,0.19l-0.11,0.05l-1.37,0.59
				c-8.29,3.54-15.17,6.4-20.45,8.49c-6.57,2.6-9.3,3.46-10.42,3.75c-0.07-3.07,3.84-12.95,12.37-22.31
				c12.44-13.65,31.84-29.16,47.13-37.7l0.07-0.04l0.01-0.01c1.4-0.78,2.78-1.51,4.09-2.17l0.04-0.02l0.01,0
				c0.65-0.32,1.29-0.64,1.93-0.94l0.1-0.05c0.6-0.28,1.2-0.55,1.78-0.8l0.13-0.06l0.07-0.03c0.54-0.24,1.08-0.45,1.61-0.67
				l0.18-0.08l0.12-0.05c0.49-0.19,0.98-0.37,1.46-0.54l0.22-0.08l0.16-0.06c0.45-0.16,0.9-0.3,1.34-0.44l0.24-0.08
				c0.06-0.02,0.12-0.04,0.18-0.06c0.57-0.17,1.13-0.33,1.66-0.46c0.74-0.19,1.54-0.36,2.5-0.56c4.58-0.93,9.65-1.4,15.08-1.4
				c3.83,0,7.8,0.23,11.79,0.69l0.44,0.05c0.4,0.05,0.8,0.1,1.18,0.15l0.09,0.01l0.13,0.02l0.67,0.09l0.06,0.01l0.14,0.02l0.64,0.09
				l0.15,0.02c0.69,0.1,1.32,0.2,1.87,0.3L203.2,133.07 M185.61,131.59c-4.93,0-10.3,0.38-15.59,1.45
				c-0.88,0.18-1.75,0.37-2.62,0.58c-0.58,0.15-1.18,0.31-1.78,0.49c-0.15,0.04-0.3,0.1-0.44,0.14c-0.47,0.15-0.94,0.3-1.42,0.46
				c-0.13,0.05-0.27,0.1-0.4,0.15c-0.5,0.18-1.01,0.37-1.53,0.57c-0.1,0.04-0.21,0.09-0.32,0.13c-0.55,0.22-1.11,0.45-1.68,0.69
				c-0.07,0.03-0.14,0.06-0.2,0.09c-0.61,0.27-1.22,0.54-1.85,0.83c-0.04,0.02-0.08,0.04-0.11,0.05c-0.66,0.31-1.32,0.63-1.99,0.96
				c-0.01,0.01-0.03,0.01-0.04,0.02c-1.39,0.7-2.82,1.45-4.26,2.26c0,0,0,0,0,0c0,0,0,0,0,0c-16.78,9.38-36.26,25.57-47.8,38.23
				c-10.69,11.72-16.18,26.75-11.08,26.75c1.2,0,5.65-1.56,11.99-4.07c5.65-2.23,12.81-5.22,20.52-8.51c0,0,0,0,0.01,0
				c0.49-0.21,0.98-0.42,1.48-0.63c0.25-0.11,0.5-0.22,0.76-0.32c0.49-0.21,0.97-0.42,1.46-0.63c0.25-0.11,0.51-0.22,0.76-0.33
				c0.86-0.37,1.72-0.74,2.58-1.12c0.28-0.12,0.57-0.25,0.85-0.37c0.49-0.21,0.98-0.42,1.47-0.64c0.25-0.11,0.5-0.22,0.75-0.33
				c0.51-0.22,1.02-0.44,1.53-0.67c0.07-0.03,0.14-0.06,0.21-0.09c1.06-0.46,2.12-0.93,3.18-1.39c0.28-0.12,0.56-0.25,0.84-0.37
				c0.49-0.22,0.98-0.43,1.47-0.65c0.27-0.12,0.53-0.23,0.8-0.35c0.82-0.36,1.63-0.72,2.44-1.07c0.33-0.15,0.67-0.29,1-0.44
				c0.45-0.2,0.9-0.4,1.35-0.6c0.31-0.14,0.61-0.27,0.92-0.41c0.45-0.2,0.9-0.4,1.35-0.6c0.41-0.18,0.81-0.36,1.22-0.54
				c0.63-0.28,1.25-0.56,1.87-0.83c0.36-0.16,0.71-0.32,1.07-0.48c0.42-0.19,0.84-0.37,1.26-0.56c0.33-0.15,0.65-0.29,0.97-0.43
				c0.4-0.18,0.81-0.36,1.2-0.54c0.65-0.29,1.29-0.58,1.92-0.86c0.29-0.13,0.58-0.26,0.86-0.39c0.42-0.19,0.84-0.38,1.25-0.56
				c0.32-0.14,0.64-0.29,0.96-0.43c0.5-0.22,0.99-0.45,1.47-0.67c0.17-0.08,0.34-0.15,0.51-0.23c0.65-0.29,1.28-0.58,1.91-0.86
				c0.24-0.11,0.48-0.22,0.72-0.33c0.42-0.19,0.84-0.38,1.25-0.57c0.22-0.1,0.45-0.2,0.67-0.31c0.58-0.27,1.15-0.53,1.71-0.78
				c0.18-0.08,0.35-0.16,0.53-0.24c0.44-0.2,0.87-0.4,1.29-0.59c0.17-0.08,0.33-0.15,0.5-0.23c0.46-0.21,0.9-0.42,1.34-0.62
				c0.11-0.05,0.22-0.1,0.32-0.15c0.52-0.24,1.02-0.47,1.5-0.7c0.13-0.06,0.25-0.12,0.37-0.17c0.37-0.17,0.73-0.34,1.07-0.5
				c0.14-0.06,0.27-0.13,0.41-0.19c0.44-0.21,0.86-0.41,1.26-0.6c0.58-0.28,1.18-0.57,1.79-0.86c0.11-0.05,0.22-0.11,0.33-0.16
				c0.6-0.29,1.2-0.59,1.81-0.89c0.1-0.05,0.19-0.1,0.29-0.14c0.63-0.32,1.27-0.64,1.92-0.97c0,0,0.01,0,0.01,0
				c0.66-0.34,1.33-0.68,1.99-1.03c0.08-0.04,0.17-0.09,0.25-0.13c0.67-0.35,1.34-0.71,2.01-1.07c0.04-0.02,0.08-0.04,0.12-0.06
				c1.4-0.75,2.8-1.53,4.19-2.32c0.04-0.02,0.08-0.04,0.12-0.07c2.13-1.22,4.24-2.48,6.24-3.75c0.01,0,0.01-0.01,0.02-0.01
				c4.05-2.58,7.7-5.25,10.45-7.84c0,0,0,0,0,0c1.57-1.48,2.84-2.93,3.72-4.33c1.72-2.73,1.91-5.26-0.09-7.35
				c0.01,0,0.01-0.01,0.02-0.01c-0.31-0.33-0.69-0.64-1.12-0.95c-0.1-0.07-0.2-0.15-0.31-0.22c-0.16-0.11-0.34-0.21-0.52-0.31
				c-0.15-0.09-0.3-0.18-0.47-0.27c-0.17-0.09-0.36-0.18-0.55-0.28c-0.19-0.09-0.39-0.19-0.6-0.28c-0.19-0.08-0.38-0.16-0.58-0.24
				c-0.24-0.1-0.49-0.19-0.75-0.28c-0.2-0.07-0.39-0.14-0.6-0.21c-0.31-0.1-0.64-0.2-0.98-0.3c-0.18-0.05-0.35-0.11-0.54-0.16
				c-0.54-0.15-1.1-0.29-1.69-0.42c0,0-0.02,0-0.04-0.01c-0.02,0-0.04-0.01-0.07-0.02c-0.02,0-0.03-0.01-0.05-0.01
				c-0.03-0.01-0.08-0.02-0.12-0.03c-0.03-0.01-0.07-0.01-0.11-0.02c-0.06-0.01-0.11-0.02-0.18-0.04c-0.02,0-0.04-0.01-0.06-0.01
				c-0.27-0.06-0.63-0.12-1.07-0.21c-0.03,0-0.05-0.01-0.08-0.02c-0.14-0.03-0.28-0.05-0.43-0.08c-0.05-0.01-0.09-0.02-0.14-0.02
				c-0.16-0.03-0.32-0.06-0.49-0.08c-0.02,0-0.04-0.01-0.06-0.01c-0.57-0.1-1.21-0.2-1.92-0.3c-0.05-0.01-0.1-0.02-0.15-0.02
				c-0.21-0.03-0.43-0.06-0.66-0.09c-0.07-0.01-0.14-0.02-0.21-0.03c-0.22-0.03-0.45-0.06-0.69-0.09c-0.08-0.01-0.15-0.02-0.23-0.03
				c-0.47-0.06-0.96-0.12-1.47-0.18c-0.06-0.01-0.11-0.01-0.18-0.02c0,0,0,0-0.01,0C194.32,131.91,190.15,131.59,185.61,131.59
				L185.61,131.59z"/>
		</g>
		<g>
			<path class="right" d="M505.79,122.51h13.05c0,0-0.44-4.5,5.66-4.64s11.89,1.16,12.47,5.37h14.36c0,0,1.74-7.83-7.69-9.28
				c-8.35-1.29-23.88-0.29-27.31-0.05c-0.5,0.04-0.98,0.14-1.45,0.32C513,114.96,508.1,117.3,505.79,122.51z"/>
			<path class="right" d="M714.89,129.57l13.05,0.34c0,0-0.32-4.51,5.78-4.49c6.09,0.01,11.86,1.47,12.33,5.69l14.35,0.38
				c0,0,1.95-7.78-7.44-9.48c-8.32-1.5-23.87-0.92-27.3-0.77c-0.5,0.02-0.98,0.11-1.45,0.28
				C722.29,122.21,717.34,124.43,714.89,129.57z"/>
			<path class="left" d="M505.79,490.24h13.05c0,0-0.44,4.5,5.66,4.64s11.89-1.16,12.47-5.37h14.36c0,0,1.74,7.83-7.69,9.28
				c-8.35,1.29-23.88,0.29-27.31,0.05c-0.5-0.04-0.98-0.14-1.45-0.32C513,497.79,508.1,495.44,505.79,490.24z"/>
			<path class="left" d="M714.89,483.18l13.05-0.34c0,0-0.32,4.51,5.78,4.49c6.09-0.01,11.86-1.47,12.33-5.69l14.35-0.38
				c0,0,1.95,7.78-7.44,9.48c-8.32,1.5-23.87,0.92-27.3,0.77c-0.5-0.02-0.98-0.11-1.45-0.28
				C722.29,490.53,717.34,488.32,714.89,483.18z"/>
		</g>
		<path class="right_back" d="M898.91,153.11c-2.68,0.38-4.08,2.17,7.64,11.85c6.56,5.42,10.16,14.34,12.02,21.28
			c4.03,7.54,8.39,16.21,11.76,21.78c-3.38-11.45-9.27-30.01-13.97-37.39C909.35,159.62,901.58,152.73,898.91,153.11z"/>
		<path class="right_back" d="M859.14,135.31c0,0,0.15,3.54,2.82,7.11c2.68,3.57,5.86,6.5,5.86,6.5"/>
		<path class="right_back" d="M888.43,139.02c0,0-9.01,3.9-9.52,6.96s15.47,14.86,15.47,14.86"/>
		<path class="left_back" d="M898.91,459.63c-2.68-0.38-4.08-2.17,7.64-11.85c6.56-5.42,10.16-14.34,12.02-21.28
			c4.03-7.54,8.39-16.21,11.76-21.78c-3.38,11.45-9.27,30.01-13.97,37.39C909.35,453.12,901.58,460.01,898.91,459.63z"/>
		<path class="left_back" d="M859.14,477.44c0,0,0.15-3.54,2.82-7.11c2.68-3.57,5.86-6.5,5.86-6.5"/>
		<path class="left_back" d="M888.43,473.73c0,0-9.01-3.9-9.52-6.96c-0.51-3.06,15.47-14.86,15.47-14.86"/>
		<g>
			<path class="right" d="M370.04,130.5h21.34c0.7,0,1.34-0.41,1.64-1.05c2.09-4.49,10.19-22.31,11.82-31.95
				c1.87-11.09-4.02-10.28-9.64-7.57c-5.47,2.63-25.67,14.75-26.98,38.61C368.17,129.6,368.99,130.5,370.04,130.5z"/>
			<path class="right" d="M369.96,130.5h20.31c0.67,0,1.27-0.38,1.56-0.99c1.99-4.23,9.7-21.02,11.25-30.1
				c1.78-10.45-3.82-9.68-9.17-7.13c-5.21,2.48-24.43,13.9-25.67,36.36C368.18,129.65,368.95,130.5,369.96,130.5z"/>
			<path class="right" d="M369.96,130.5h17.94c-0.16,0.93-0.35,1.66-0.55,2.23c-0.39,1.11-1.4,1.87-2.58,1.94
				c-4.77,0.26-19.52,0.98-22.72-0.09c-3.82-1.27,0-8.15,2.29-9.68c0.89-0.6,2.94-2.27,5.12-4.1c-0.65,2.45-1.08,5.06-1.23,7.85
				C368.18,129.65,368.95,130.5,369.96,130.5z"/>
			<path class="right" d="M380.57,140.24c-0.03,0-0.06,0-0.08,0c-3.52,0.06-7.01,0.12-10.45,0.19l0,0c-1.95,0.04-3.88,0.08-5.79,0.12
				c1.08-1.27,0.33-3.77-0.48-5.65c3.71,0.42,11.07,0.22,16.37-0.01l3.41,5.31C382.56,140.22,381.56,140.23,380.57,140.24z"/>
		</g>
		<path class="st4" d="M395.21,89.92c-4.85,2.34-21.27,12.14-25.84,30.96c0.03-0.03,0.07-0.05,0.1-0.08
			c-0.01,0.02-0.01,0.05-0.02,0.07c4.54-17.36,19.89-26.41,24.46-28.58c5.35-2.55,10.96-3.31,9.17,7.13
			c-1.55,9.08-9.26,25.87-11.25,30.1c-0.28,0.61-0.89,0.99-1.56,0.99h1.12c0.7,0,1.34-0.41,1.64-1.05
			c2.09-4.49,10.19-22.31,11.82-31.95C406.72,86.41,400.83,87.22,395.21,89.92z"/>
		<g>
			<path class="st10" d="M370.04,482.24h21.34c0.7,0,1.34,0.41,1.64,1.05c2.09,4.49,10.19,22.31,11.82,31.95
				c1.87,11.09-4.02,10.28-9.64,7.57c-5.47-2.63-25.67-14.75-26.98-38.61C368.17,483.15,368.99,482.24,370.04,482.24z"/>
			<path class="left" d="M369.96,482.24h20.31c0.67,0,1.27,0.38,1.56,0.99c1.99,4.23,9.7,21.02,11.25,30.1
				c1.78,10.45-3.82,9.68-9.17,7.13c-5.21-2.48-24.43-13.9-25.67-36.36C368.18,483.1,368.95,482.24,369.96,482.24z"/>
			<path class="left" d="M369.96,482.24h17.94c-0.16-0.93-0.35-1.66-0.55-2.23c-0.39-1.11-1.4-1.87-2.58-1.94
				c-4.77-0.26-19.52-0.98-22.72,0.09c-3.82,1.27,0,8.15,2.29,9.68c0.89,0.6,2.94,2.27,5.12,4.1c-0.65-2.45-1.08-5.06-1.23-7.85
				C368.18,483.1,368.95,482.24,369.96,482.24z"/>
			<path class="left" d="M380.57,472.5c-0.03,0-0.06,0-0.08,0c-3.52-0.06-7.01-0.12-10.45-0.19l0,0c-1.95-0.04-3.88-0.08-5.79-0.12
				c1.08,1.27,0.33,3.77-0.48,5.65c3.71-0.42,11.07-0.22,16.37,0.01l3.41-5.31C382.56,472.53,381.56,472.52,380.57,472.5z"/>
		</g>
		<path class="st4" d="M404.85,515.25c-1.63-9.64-9.73-27.47-11.82-31.95c-0.3-0.64-0.94-1.05-1.64-1.05h-1.12
			c0.67,0,1.27,0.38,1.56,0.99c1.99,4.23,9.7,21.02,11.25,30.1c1.78,10.45-3.82,9.68-9.17,7.13c-4.57-2.18-19.91-11.22-24.45-28.57
			c0,0.02,0.01,0.04,0.01,0.06c-0.03-0.03-0.07-0.05-0.1-0.08c4.57,18.82,20.99,28.62,25.84,30.96
			C400.83,525.53,406.72,526.34,404.85,515.25z"/>
		<g>
			<g>
				<path class="st4" d="M77.79,303.56c-0.05-0.56-0.1-1.11-0.17-1.67c-0.08-0.61-0.18-1.22-0.3-1.83c-0.21-1.1-0.5-2.17-0.9-3.22
					c-0.29-0.76-0.64-1.5-1.13-2.17c-0.27-0.37-0.57-0.71-0.96-0.96c-0.65-0.43-1.32-0.48-2.01-0.1c-0.35,0.2-0.64,0.47-0.9,0.78
					c-0.49,0.58-0.84,1.25-1.14,1.94c-0.45,1.05-0.76,2.14-1.01,3.25c-0.2,0.89-0.35,1.79-0.44,2.7c-0.07,0.66-0.13,1.31-0.17,1.97
					c-0.04,0.74-0.05,1.48-0.08,2.22c0.01,0,0.02,0,0.03,0c0,0.28,0,0.56,0,0.84c0.02,0.95,0.08,1.9,0.19,2.85
					c0.08,0.78,0.2,1.55,0.34,2.31c0.19,0.98,0.42,1.95,0.75,2.89c0.28,0.83,0.63,1.64,1.1,2.38c0.29,0.46,0.63,0.88,1.07,1.21
					c0.36,0.27,0.75,0.43,1.21,0.43c0.44-0.01,0.82-0.17,1.17-0.43c0.43-0.32,0.76-0.73,1.05-1.18c0.42-0.64,0.73-1.34,0.99-2.06
					c0.54-1.48,0.88-3.02,1.09-4.58c0.1-0.71,0.17-1.42,0.22-2.13c0.05-0.65,0.08-1.31,0.09-1.96
					C77.92,305.88,77.89,304.72,77.79,303.56z M77.44,308.71c-0.04,0.8-0.13,1.61-0.24,2.4c-0.16,1.16-0.38,2.3-0.71,3.42
					c-0.28,0.95-0.61,1.87-1.11,2.73c-0.25,0.43-0.54,0.84-0.93,1.17c-0.27,0.23-0.57,0.41-0.93,0.48
					c-0.41,0.07-0.79-0.03-1.14-0.25c-0.42-0.26-0.73-0.62-1-1.02c-0.41-0.6-0.71-1.25-0.96-1.92c-0.35-0.94-0.61-1.9-0.8-2.88
					c-0.11-0.55-0.2-1.1-0.28-1.65c-0.07-0.49-0.13-0.99-0.17-1.49c-0.05-0.58-0.1-1.15-0.12-1.73c-0.02-0.78-0.03-1.57-0.03-2.35
					c0-0.43,0.02-0.86,0.05-1.29c0.02-0.41,0.05-0.82,0.09-1.23c0.04-0.46,0.09-0.92,0.15-1.37c0.19-1.43,0.48-2.85,0.94-4.22
					c0.25-0.75,0.56-1.48,0.97-2.15c0.26-0.42,0.56-0.81,0.95-1.11c0.26-0.2,0.54-0.35,0.87-0.4c0.35-0.05,0.68,0.02,0.99,0.19
					c0.36,0.2,0.64,0.48,0.89,0.8c0.42,0.54,0.73,1.14,1,1.77c0.36,0.85,0.63,1.73,0.83,2.63c0.15,0.66,0.27,1.32,0.38,1.98
					c0.09,0.52,0.14,1.05,0.2,1.58c0.13,1.19,0.18,2.39,0.18,3.59c0.01,0,0.01,0,0.02,0C77.5,307.15,77.48,307.93,77.44,308.71z"/>
			</g>
			<g>
				<g>
					<path class="st4" d="M72.82,312.26c0.03,0.03,0.04,0.05,0.06,0.06c0.61,0.4,1.22,0.8,1.83,1.19c0.05,0.03,0.07,0.07,0.07,0.12
						c0,0.21,0,0.43,0,0.64c0,0.03-0.01,0.05-0.02,0.08c-0.02-0.01-0.05-0.01-0.07-0.02c-0.79-0.51-1.58-1.02-2.37-1.52
						c-0.33-0.21-0.66-0.41-0.99-0.61c-0.06-0.04-0.12-0.06-0.19-0.08c-0.14-0.04-0.26,0.05-0.23,0.2c0.02,0.1,0.05,0.21,0.11,0.28
						c0.16,0.21,0.33,0.41,0.51,0.6c0.14,0.15,0.29,0.29,0.43,0.44c0.06,0.06,0.06,0.08,0,0.14c-0.04,0.04-0.07,0.08-0.11,0.12
						c-0.03,0.04-0.07,0.04-0.11,0.01c-0.3-0.25-0.58-0.51-0.83-0.79c-0.2-0.23-0.39-0.48-0.5-0.77c-0.06-0.17-0.1-0.34-0.06-0.52
						c0.05-0.22,0.22-0.38,0.45-0.41c0.03,0,0.06-0.01,0.11-0.02c-0.03-0.04-0.05-0.06-0.07-0.08c-0.19-0.21-0.35-0.43-0.42-0.71
						c-0.14-0.51,0.15-0.96,0.67-1.05c0.15-0.02,0.3-0.01,0.45-0.01c0.03,0,0.06,0,0.11,0c-0.02-0.04-0.04-0.06-0.05-0.09
						c-0.1-0.15-0.18-0.32-0.22-0.5c-0.11-0.44,0.14-0.78,0.61-0.83c0.02,0,0.04,0,0.07-0.02c-0.02-0.02-0.04-0.03-0.06-0.05
						c-0.48-0.31-0.96-0.62-1.45-0.93c-0.06-0.04-0.09-0.08-0.09-0.16c0-0.18,0-0.35,0-0.53c0-0.04,0.01-0.08,0.02-0.12
						c0.04,0.01,0.08,0.02,0.12,0.04c0.3,0.19,0.6,0.38,0.9,0.57c0.32,0.2,0.65,0.39,0.97,0.58c0.07,0.04,0.15,0.07,0.24,0.09
						c0.14,0.03,0.22-0.06,0.17-0.19c-0.04-0.1-0.09-0.2-0.15-0.29c-0.2-0.28-0.45-0.5-0.72-0.71c-0.24-0.19-0.49-0.36-0.73-0.55
						c-0.3-0.23-0.56-0.49-0.72-0.83c-0.15-0.31-0.2-0.63-0.09-0.96c0.1-0.3,0.3-0.5,0.6-0.61c0.02-0.01,0.04-0.01,0.05-0.02
						c0.08-0.03,0.08-0.04,0.02-0.1c-0.11-0.12-0.23-0.24-0.33-0.37c-0.09-0.11-0.08-0.13,0.03-0.22c0.03-0.02,0.06-0.05,0.1-0.07
						c0.08-0.05,0.1-0.05,0.17,0.02c0.09,0.1,0.18,0.2,0.27,0.29c0.12,0.12,0.26,0.22,0.41,0.28c0.32,0.13,0.62,0.28,0.88,0.5
						c0.43,0.35,0.67,0.8,0.75,1.35c0.02,0.14-0.02,0.21-0.15,0.25c-0.19,0.07-0.17,0.08-0.25-0.11c-0.17-0.39-0.4-0.73-0.77-0.96
						c-0.2-0.12-0.42-0.2-0.67-0.19c-0.24,0.01-0.43,0.15-0.48,0.36c-0.04,0.15-0.01,0.29,0.06,0.42c0.15,0.33,0.42,0.53,0.74,0.67
						c0.37,0.15,0.74,0.17,1.12,0.06c0.13-0.03,0.17-0.02,0.24,0.09c0.04,0.06,0.07,0.12,0.1,0.18c0.05,0.09,0.02,0.17-0.06,0.23
						c-0.19,0.12-0.4,0.17-0.62,0.18c-0.03,0-0.06,0.01-0.11,0.01c0.03,0.04,0.05,0.06,0.07,0.08c0.2,0.2,0.41,0.39,0.6,0.6
						c0.17,0.18,0.28,0.4,0.31,0.65c0.04,0.3-0.13,0.52-0.42,0.55c-0.07,0.01-0.15,0.01-0.24,0.02c0.03,0.03,0.05,0.05,0.08,0.07
						c0.16,0.11,0.29,0.25,0.38,0.42c0.1,0.17,0.15,0.35,0.12,0.55c-0.06,0.43-0.55,0.6-0.9,0.33c-0.12-0.09-0.2-0.21-0.2-0.37
						c-0.01-0.24,0.16-0.41,0.4-0.4c0.03,0,0.06-0.01,0.09-0.01c-0.02-0.02-0.03-0.05-0.06-0.07c-0.16-0.14-0.34-0.22-0.56-0.2
						c-0.23,0.02-0.38,0.21-0.34,0.44c0.03,0.17,0.1,0.31,0.2,0.44c0.19,0.25,0.39,0.49,0.6,0.72c0.2,0.23,0.4,0.46,0.54,0.73
						c0.1,0.19,0.16,0.38,0.17,0.59C73.39,311.88,73.23,312.11,72.82,312.26z M72.1,311.8c0.07-0.1,0.07-0.09,0.17-0.05
						c0.08,0.03,0.15,0.06,0.24,0.08c0.23,0.04,0.39-0.11,0.36-0.34c-0.01-0.12-0.07-0.23-0.13-0.32c-0.22-0.31-0.51-0.54-0.85-0.7
						c-0.18-0.09-0.38-0.13-0.58-0.12c-0.19,0.01-0.29,0.13-0.28,0.31c0,0.14,0.07,0.26,0.15,0.37c0.18,0.28,0.44,0.49,0.73,0.65
						C71.96,311.72,72.03,311.76,72.1,311.8z"/>
				</g>
				<g>
					<path class="st4" d="M75.83,305.26c-0.1,0.03-0.14-0.04-0.19-0.1c-0.27-0.36-0.55-0.71-0.89-1.01
						c-0.16-0.14-0.34-0.25-0.52-0.38c-0.02-0.01-0.04-0.02-0.07-0.03c0,0.09,0.01,0.16,0.01,0.24c0.01,0.21,0.02,0.42,0.03,0.63
						c0.01,0.09,0.01,0.09,0.09,0.08c0.28-0.03,0.56,0.12,0.68,0.36c0.06,0.11,0.08,0.23,0.04,0.35c-0.07,0.21-0.27,0.31-0.52,0.24
						c-0.23-0.06-0.39-0.22-0.48-0.44c-0.01-0.03-0.02-0.05-0.05-0.1c-0.06,0.07-0.1,0.13-0.14,0.19c-0.07,0.1-0.1,0.11-0.16,0.07
						c-0.07-0.04-0.1-0.13-0.04-0.21c0.07-0.11,0.15-0.21,0.23-0.31c0.04-0.04,0.06-0.08,0.06-0.14c-0.03-0.33-0.06-0.66-0.09-0.98
						c0-0.01,0-0.01,0-0.02c-0.03-0.27,0.01-0.19-0.22-0.33c-0.6-0.37-1.2-0.73-1.75-1.16c-0.39-0.3-0.75-0.63-1.03-1.04
						c-0.3-0.44-0.43-0.93-0.38-1.47c0.07-0.63,0.47-1.14,1.11-1.25c1.02-0.18,1.73,0.55,1.87,1.23c0.01,0.07,0,0.15-0.01,0.22
						c-0.02,0.08-0.09,0.12-0.17,0.13c-0.08,0.01-0.12-0.04-0.16-0.1c-0.11-0.21-0.25-0.4-0.44-0.55c-0.22-0.17-0.46-0.24-0.73-0.17
						c-0.33,0.09-0.53,0.37-0.53,0.75c0,0.3,0.1,0.58,0.26,0.83c0.19,0.32,0.45,0.57,0.72,0.82c0.39,0.37,0.82,0.69,1.26,1
						c0.01,0.01,0.03,0.02,0.06,0.04c-0.01-0.1-0.02-0.19-0.03-0.28c-0.04-0.19-0.11-0.36-0.23-0.52c-0.02-0.03-0.05-0.07-0.06-0.11
						c-0.02-0.06-0.01-0.11,0.04-0.16c0.05-0.04,0.11-0.05,0.16-0.02c0.04,0.02,0.09,0.06,0.12,0.1c0.18,0.26,0.27,0.56,0.33,0.87
						c0.02,0.13,0.04,0.26,0.07,0.39c0.01,0.04,0.04,0.09,0.07,0.11c0.2,0.16,0.41,0.3,0.61,0.46c0.45,0.37,0.84,0.79,1.11,1.32
						c0.01,0.02,0.02,0.03,0.04,0.07c0.01-0.04,0.03-0.06,0.03-0.09c0.07-0.43,0.16-0.86,0.21-1.29c0.08-0.59,0.05-1.18-0.16-1.74
						c-0.1-0.27-0.25-0.51-0.48-0.69c-0.16-0.12-0.33-0.21-0.54-0.19c-0.26,0.02-0.41,0.2-0.39,0.46c0.02,0.25,0.13,0.45,0.28,0.64
						c0.11,0.15,0.25,0.27,0.4,0.38c0.02,0.01,0.03,0.02,0.04,0.03c0.04,0.03,0.07,0.08,0.04,0.13c-0.02,0.04-0.07,0.07-0.11,0.08
						c-0.04,0.01-0.1,0-0.14-0.01c-0.47-0.2-0.88-0.48-1.13-0.94c-0.15-0.28-0.22-0.58-0.15-0.89c0.09-0.39,0.43-0.66,0.83-0.68
						c0.48-0.02,0.87,0.17,1.18,0.52c0.35,0.38,0.54,0.84,0.66,1.34c0.09,0.4,0.11,0.82,0.1,1.23c-0.01,0.74-0.13,1.47-0.25,2.19
						c-0.1,0.62-0.2,1.23-0.26,1.85c-0.1,0.96-0.06,1.92,0.15,2.87c0.04,0.19-0.06,0.28-0.25,0.24c-0.13-0.03-0.22-0.1-0.31-0.2
						c-0.21-0.24-0.34-0.53-0.42-0.84c-0.1-0.37-0.11-0.74-0.09-1.12c0.04-0.66,0.22-1.3,0.4-1.94c0.08-0.3,0.16-0.6,0.24-0.91
						C75.82,305.32,75.82,305.3,75.83,305.26z M74.67,305.37c0.1,0,0.14-0.07,0.11-0.16c-0.05-0.14-0.3-0.26-0.43-0.21
						c-0.02,0.01-0.04,0.04-0.03,0.05C74.33,305.2,74.53,305.37,74.67,305.37z"/>
				</g>
			</g>
		</g>
	</g>
</g>
</svg>
